<?xml version="1.0" standalone="no"?>
<!DOCTYPE svg PUBLIC "-//W3C//DTD SVG 20010904//EN"
 "http://www.w3.org/TR/2001/REC-SVG-20010904/DTD/svg10.dtd">
<svg version="1.0" xmlns="http://www.w3.org/2000/svg"
 width="247.000000pt" height="312.000000pt" viewBox="0 0 247.000000 312.000000"
 preserveAspectRatio="xMidYMid meet">

<g transform="translate(0.000000,312.000000) scale(0.100000,-0.100000)"
fill="#000000" stroke="none">
<path d="M1620 3103 c-36 -25 -65 -61 -96 -117 -27 -49 -27 -49 -10 -101 44
-141 0 -219 -148 -256 -43 -11 -51 -9 -108 16 -50 23 -76 28 -139 28 -66 0
-87 -5 -144 -32 -56 -26 -79 -31 -140 -31 -153 0 -302 -60 -416 -168 -97 -91
-152 -179 -157 -252 -4 -53 -2 -60 28 -93 35 -41 105 -67 176 -67 32 0 55 9
102 40 62 42 148 128 179 181 9 16 20 29 23 29 3 0 14 -29 26 -65 l20 -65 -52
-55 c-73 -77 -97 -144 -92 -250 6 -105 35 -162 124 -244 l67 -61 -38 -72 c-21
-40 -64 -123 -97 -185 l-59 -112 -95 55 c-62 36 -101 53 -113 49 -11 -3 -37
-25 -60 -50 -54 -59 -77 -135 -65 -224 4 -36 7 -94 6 -129 -3 -94 25 -136 123
-185 75 -37 151 -57 222 -57 86 0 130 19 141 62 15 58 -5 106 -74 175 -34 35
-61 63 -59 63 2 0 15 -5 28 -11 19 -8 31 -7 54 5 29 15 31 14 53 -16 29 -39
111 -76 186 -84 104 -11 317 43 503 127 35 16 67 29 72 29 9 0 39 -128 39
-169 0 -28 -3 -31 -32 -31 -80 0 -168 -46 -191 -99 -6 -14 -18 -30 -25 -35 -8
-4 -20 -24 -28 -43 -22 -51 2 -114 71 -190 117 -129 308 -160 458 -75 15 9 27
22 27 30 0 7 -25 56 -55 108 -30 53 -55 97 -55 100 0 2 9 4 20 4 22 0 89 56
121 101 26 37 39 120 29 189 -12 85 -45 158 -106 239 l-56 75 30 25 c17 15 41
46 53 71 l23 45 6 -42 c7 -49 43 -93 76 -93 31 0 41 -54 25 -132 -10 -49 -9
-62 4 -87 22 -43 73 -78 136 -94 47 -13 58 -13 82 0 41 21 69 71 64 115 -7 51
-61 128 -91 128 -23 0 -23 2 20 87 46 92 71 197 52 220 -5 7 -26 17 -46 24
-53 17 -52 15 -31 56 41 81 15 241 -64 388 l-32 60 43 99 c72 164 103 269 109
365 4 76 2 91 -19 130 -29 57 -59 78 -130 93 -83 17 -85 13 -58 -123 57 -283
-34 -419 -268 -403 -81 6 -90 4 -136 -21 l-49 -26 -41 39 c-23 22 -60 51 -83
66 -39 24 -42 28 -33 52 6 14 10 60 10 102 -1 68 -8 100 -35 165 -6 14 -2 17
22 17 51 0 182 38 244 72 107 56 158 143 146 247 -3 26 -18 85 -33 131 -45
136 -116 191 -184 143z m89 -59 c26 -33 60 -123 74 -196 19 -105 -19 -175
-127 -228 -62 -31 -247 -76 -272 -66 -26 10 -14 22 39 39 62 20 118 64 141
111 20 42 21 117 2 181 -17 56 -9 79 51 146 41 46 64 49 92 13z m-473 -444
c59 -25 119 -83 148 -143 33 -64 35 -101 6 -92 -12 4 -31 0 -44 -9 -31 -20
-69 -83 -62 -101 9 -26 36 -16 57 20 25 42 36 44 50 8 10 -27 9 -41 -6 -90 -6
-19 0 -25 45 -48 214 -108 258 -340 96 -494 -44 -41 -158 -111 -182 -111 -15
0 142 137 182 159 42 23 57 52 35 66 -5 3 -31 -6 -57 -20 -52 -28 -80 -31
-119 -13 -24 11 -25 14 -25 108 l0 97 40 32 c52 41 97 116 81 135 -33 39 -212
53 -306 24 -27 -9 -85 -32 -127 -51 -61 -28 -78 -40 -78 -56 0 -28 18 -26 95
8 l65 30 54 -54 c31 -32 67 -57 87 -63 l34 -8 0 -90 0 -89 -54 -18 c-136 -45
-248 -27 -326 53 -41 42 -75 52 -75 22 0 -26 77 -98 130 -121 25 -11 64 -23
87 -27 36 -5 42 -10 52 -44 6 -21 24 -52 40 -69 l29 -31 -46 0 c-63 0 -162 25
-220 54 -64 32 -137 98 -169 153 -31 54 -42 159 -23 219 17 52 71 126 115 155
19 13 35 29 35 36 0 6 -11 33 -24 60 -14 26 -28 71 -31 99 -6 45 -3 61 30 135
20 46 49 97 63 112 75 79 210 103 318 57z m923 -25 c45 -23 65 -76 58 -159 -7
-88 -34 -175 -104 -338 l-55 -127 22 -36 c12 -20 21 -37 19 -39 -2 -2 -25 -15
-51 -30 -168 -97 -154 -212 36 -308 34 -17 63 -32 65 -34 2 -1 -6 -14 -16 -28
-28 -35 -49 -114 -35 -128 18 -18 38 -2 50 40 l12 40 41 -16 41 -16 -6 -45
c-8 -59 -47 -143 -98 -208 -53 -69 -48 -87 25 -78 l54 7 21 -44 c12 -23 18
-44 14 -46 -5 -1 -29 6 -53 17 -37 17 -46 18 -58 7 -18 -19 -8 -32 47 -58 l47
-22 -33 -4 c-38 -4 -104 30 -127 65 -13 19 -14 31 -4 66 6 24 8 66 5 97 -6 54
-5 57 24 78 16 13 30 29 30 38 0 26 -28 26 -63 0 -67 -51 -97 -31 -97 66 0 66
-1 70 -45 124 -60 73 -86 126 -92 188 -4 42 0 60 22 100 23 44 24 51 11 64
-21 21 -38 5 -66 -60 -40 -94 -17 -197 70 -306 29 -36 36 -52 29 -63 -8 -11
-12 -11 -16 -1 -9 24 -55 72 -68 72 -22 0 -25 -28 -4 -54 11 -14 24 -39 30
-55 13 -38 -6 -74 -62 -114 -44 -32 -48 -46 -20 -71 19 -17 19 -18 -5 -53 -55
-82 -20 -164 101 -238 69 -42 70 -43 66 -81 -4 -51 -22 -84 -67 -123 -33 -30
-41 -32 -80 -26 -26 4 -45 2 -49 -5 -4 -6 23 -64 59 -129 36 -65 66 -120 66
-123 0 -3 -18 -11 -40 -18 -47 -16 -49 -14 -117 75 -33 46 -54 64 -67 63 -33
-5 -28 -22 24 -88 l50 -65 -28 -3 c-16 -2 -54 7 -85 18 -57 21 -57 21 -57 64
0 23 -5 47 -11 53 -17 17 -39 4 -39 -24 0 -32 -15 -22 -51 35 -35 56 -37 91
-5 125 14 15 27 35 31 46 11 35 70 63 148 70 l72 6 -1 80 c-1 123 -45 242
-140 381 -52 76 -61 85 -81 77 -19 -8 -16 -25 13 -64 43 -58 105 -169 100
-178 -10 -15 -248 -109 -331 -130 -277 -70 -400 -10 -431 212 -7 49 -26 69
-46 49 -11 -11 -1 -96 18 -159 4 -15 0 -24 -14 -32 -16 -9 -33 -5 -85 19 -64
31 -65 31 -71 80 -5 41 -10 50 -26 50 -23 0 -23 1 -21 -100 3 -116 8 -133 40
-127 14 3 39 0 56 -7 31 -14 115 -98 115 -116 0 -6 -25 4 -55 21 -45 25 -58
29 -70 19 -8 -7 -15 -16 -15 -21 0 -4 30 -25 67 -45 38 -21 70 -39 73 -41 12
-11 -31 -23 -80 -23 -54 0 -58 2 -105 50 -50 50 -85 64 -85 33 0 -9 8 -25 17
-36 18 -20 18 -20 -17 -2 -89 44 -126 97 -101 143 7 13 6 35 -4 73 -25 92 -16
165 28 229 40 59 45 59 156 -4 56 -31 106 -54 111 -51 6 4 19 24 30 46 22 42
34 47 66 25 35 -25 106 -39 136 -27 46 17 62 63 55 161 -3 47 -13 107 -21 135
-8 27 -14 50 -13 52 2 1 23 -5 47 -14 68 -24 240 -29 324 -9 154 36 303 153
342 268 22 66 22 170 0 222 -9 21 -16 42 -16 47 0 5 19 18 42 30 68 35 124 24
237 -45 52 -31 100 -55 107 -52 28 11 13 34 -47 73 l-60 40 55 27 c92 45 140
119 152 236 5 57 -5 166 -23 238 -6 27 14 29 56 7z m-1308 -32 c-6 -10 -29
-58 -52 -107 -69 -145 -166 -263 -279 -339 -44 -31 -143 -15 -187 30 -38 37
-28 94 30 175 116 163 271 252 450 257 42 1 46 -1 38 -16z m566 -462 c12 -6 7
-16 -24 -49 -44 -46 -81 -54 -131 -28 -33 17 -78 64 -69 72 22 23 187 26 224
5z m743 -349 c19 -59 28 -182 14 -182 -3 0 -37 16 -75 36 -73 39 -119 83 -119
115 0 25 45 74 95 103 49 28 56 22 85 -72z m-800 -43 l41 -22 -23 -24 c-34
-37 -109 -83 -133 -83 -22 0 -54 29 -74 67 -17 33 -13 43 17 43 20 1 111 28
129 39 1 0 21 -9 43 -20z m-446 -278 c21 -91 21 -175 0 -195 -21 -21 -30 -20
-92 9 l-52 24 57 116 c32 63 61 115 64 115 4 0 15 -31 23 -69z m924 -348 c43
-61 90 -173 73 -173 -13 0 -94 60 -113 84 -20 24 -23 68 -8 97 14 26 25 24 48
-8z m-1201 -109 c-3 -3 -12 -4 -19 -1 -8 3 -5 6 6 6 11 1 17 -2 13 -5z" style="fill:#ff0000"/>
<path d="M978 2520 c-77 -23 -138 -113 -138 -205 0 -102 73 -197 164 -212 86
-14 185 63 206 159 33 158 -94 300 -232 258z m122 -68 c90 -68 85 -215 -10
-279 -60 -41 -134 -20 -175 52 -83 141 62 318 185 227z" style="fill:#ffff00"/>
<path d="M973 2355 c-12 -8 -31 -31 -43 -50 -39 -64 2 -93 42 -30 38 58 71 56
104 -7 16 -30 54 -39 54 -13 0 26 -28 72 -56 94 -31 25 -71 27 -101 6z" style="fill:#ff00ff"/>
</g>
</svg>
