<?xml version="1.0" standalone="no"?>
<svg width="1125" height="756" xmlns="http://www.w3.org/2000/svg"><path data-facetId="0" d="M 72 753 Q 70.5 753 69 753 Q 67.5 753 66 753 Q 64.5 753 63 753 Q 61.5 753 60 753 Q 58.5 753 57 753 Q 55.5 753 54 753 Q 52.5 753 51 753 Q 49.5 753 48 753 Q 46.5 753 45 753 Q 43.5 753 42 753 Q 40.5 753 39 753 Q 37.5 753 36 753 Q 34.5 753 33 753 Q 31.5 753 30 753 Q 28.5 753 27 753 Q 25.5 753 24 753 Q 22.5 753 21 753 Q 19.5 753 18 753 Q 16.5 753 15 753 Q 13.5 753 12 753 Q 10.5 753 9 753 Q 7.5 753 6 753 Q 4.5 753 3 753 Q 1.5 753 0 753 Q 0 753 0 753 Q 0 751.5 0 750 Q 0 748.5 0 747 Q 0 745.5 0 744 Q 0 742.5 0 741 Q 0 739.5 0 738 Q 0 736.5 0 735 Q 0 733.5 0 732 Q 0 730.5 0 729 Q 0 727.5 0 726 Q 0 724.5 0 723 Q 0 721.5 0 720 Q 0 718.5 0 717 Q 0 715.5 0 714 Q 0 712.5 0 711 Q 0 709.5 0 708 Q 0 706.5 0 705 Q 0 703.5 0 702 Q 0 700.5 0 699 Q 0 697.5 0 696 Q 0 694.5 0 693 Q 0 691.5 0 690 Q 0 688.5 0 687 Q 0 685.5 0 684 Q 0 682.5 0 681 Q 0 679.5 0 678 Q 0 676.5 0 675 Q 0 673.5 0 672 Q 0 670.5 0 669 Q 0 667.5 0 666 Q 0 664.5 0 663 Q 0 661.5 0 660 Q 0 658.5 0 657 Q 0 655.5 0 654 Q 0 652.5 0 651 Q 0 649.5 0 648 Q 0 646.5 0 645 Q 0 643.5 0 642 Q 0 640.5 0 639 Q 0 637.5 0 636 Q 0 634.5 0 633 Q 0 631.5 0 630 Q 0 628.5 0 627 Q 0 625.5 0 624 Q 0 622.5 0 621 Q 0 619.5 0 618 Q 0 616.5 0 615 Q 0 613.5 0 612 Q 0 610.5 0 609 Q 0 607.5 0 606 Q 0 604.5 0 603 Q 0 601.5 0 600 Q 0 598.5 0 597 Q 0 595.5 0 594 Q 0 592.5 0 591 Q 0 589.5 0 588 Q 0 586.5 0 585 Q 0 583.5 0 582 Q 0 580.5 0 579 Q 0 577.5 0 576 Q 0 574.5 0 573 Q 0 571.5 0 570 Q 0 568.5 0 567 Q 0 565.5 0 564 Q 0 562.5 0 561 Q 0 559.5 0 558 Q 0 556.5 0 555 Q 0 553.5 0 552 Q 0 550.5 0 549 Q 0 547.5 0 546 Q 0 544.5 0 543 Q 0 541.5 0 540 Q 0 538.5 0 537 Q 0 535.5 0 534 Q 0 532.5 0 531 Q 0 529.5 0 528 Q 0 526.5 0 525 Q 0 523.5 0 522 Q 0 520.5 0 519 Q 0 517.5 0 516 Q 0 514.5 0 513 Q 0 511.5 0 510 Q 0 508.5 0 507 Q 0 505.5 0 504 Q 0 502.5 0 501 Q 0 499.5 0 498 Q 0 496.5 0 495 Q 0 493.5 0 492 Q 0 490.5 0 489 Q 0 487.5 0 486 Q 0 484.5 0 483 Q 0 481.5 0 480 Q 0 478.5 0 477 Q 0 475.5 0 474 Q 0 472.5 0 471 Q 0 469.5 0 468 Q 0 466.5 0 465 Q 0 463.5 0 462 Q 0 460.5 0 459 Q 0 457.5 0 456 Q 0 454.5 0 453 Q 0 451.5 0 450 Q 0 448.5 0 447 Q 0 445.5 0 444 Q 0 442.5 0 441 Q 0 439.5 0 438 Q 0 436.5 0 435 Q 0 433.5 0 432 Q 0 430.5 0 429 Q 0 427.5 0 426 Q 0 424.5 0 423 Q 0 421.5 0 420 Q 0 418.5 0 417 Q 0 415.5 0 414 Q 0 412.5 0 411 Q 0 409.5 0 408 Q 0 406.5 0 405 Q 0 403.5 0 402 Q 0 400.5 0 399 Q 0 397.5 0 396 Q 0 394.5 0 393 Q 0 391.5 0 390 Q 0 388.5 0 387 Q 0 385.5 0 384 Q 0 382.5 0 381 Q 0 379.5 0 378 Q 0 376.5 0 375 Q 0 373.5 0 372 Q 0 370.5 0 369 Q 0 367.5 0 366 Q 0 364.5 0 363 Q 0 361.5 0 360 Q 0 358.5 0 357 Q 0 355.5 0 354 Q 0 352.5 0 351 Q 0 349.5 0 348 Q 0 346.5 0 345 Q 0 343.5 0 342 Q 0 340.5 0 339 Q 0 337.5 0 336 Q 0 334.5 0 333 Q 0 331.5 0 330 Q 0 328.5 0 327 Q 0 325.5 0 324 Q 0 322.5 0 321 Q 0 319.5 0 318 Q 0 316.5 0 315 Q 0 313.5 0 312 Q 0 310.5 0 309 Q 0 307.5 0 306 Q 0 304.5 0 303 Q 0 301.5 0 300 Q 0 298.5 0 297 Q 0 295.5 0 294 Q 0 292.5 0 291 Q 0 289.5 0 288 Q 0 286.5 0 285 Q 0 283.5 0 282 Q 0 280.5 0 279 Q 0 277.5 0 276 Q 0 274.5 0 273 Q 0 271.5 0 270 Q 0 268.5 0 267 Q 0 265.5 0 264 Q 0 262.5 0 261 Q 0 259.5 0 258 Q 0 256.5 0 255 Q 0 253.5 0 252 Q 0 250.5 0 249 Q 0 247.5 0 246 Q 0 244.5 0 243 Q 0 241.5 0 240 Q 0 238.5 0 237 Q 0 235.5 0 234 Q 0 232.5 0 231 Q 0 229.5 0 228 Q 0 226.5 0 225 Q 0 223.5 0 222 Q 0 220.5 0 219 Q 0 217.5 0 216 Q 0 214.5 0 213 Q 0 211.5 0 210 Q 0 208.5 0 207 Q 0 205.5 0 204 Q 0 202.5 0 201 Q 0 199.5 0 198 Q 0 196.5 0 195 Q 0 193.5 0 192 Q 0 190.5 0 189 Q 0 187.5 0 186 Q 0 184.5 0 183 Q 0 181.5 0 180 Q 0 178.5 0 177 Q 0 175.5 0 174 Q 0 172.5 0 171 Q 0 169.5 0 168 Q 0 166.5 0 165 Q 0 163.5 0 162 Q 0 160.5 0 159 Q 0 157.5 0 156 Q 0 154.5 0 153 Q 0 151.5 0 150 Q 0 148.5 0 147 Q 0 145.5 0 144 Q 0 142.5 0 141 Q 0 139.5 0 138 Q 0 136.5 0 135 Q 0 133.5 0 132 Q 0 130.5 0 129 Q 0 127.5 0 126 Q 0 124.5 0 123 Q 0 121.5 0 120 Q 0 118.5 0 117 Q 0 115.5 0 114 Q 0 112.5 0 111 Q 0 109.5 0 108 Q 0 106.5 0 105 Q 0 103.5 0 102 Q 0 100.5 0 99 Q 0 97.5 0 96 Q 0 94.5 0 93 Q 0 91.5 0 90 Q 0 88.5 0 87 Q 0 85.5 0 84 Q 0 82.5 0 81 Q 0 79.5 0 78 Q 0 76.5 0 75 Q 0 73.5 0 72 Q 0 70.5 0 69 Q 0 67.5 0 66 Q 0 64.5 0 63 Q 0 61.5 0 60 Q 0 58.5 0 57 Q 0 55.5 0 54 Q 0 52.5 0 51 Q 0 49.5 0 48 Q 0 46.5 0 45 Q 0 43.5 0 42 Q 0 40.5 0 39 Q 0 37.5 0 36 Q 0 34.5 0 33 Q 0 31.5 0 30 Q 0 28.5 0 27 Q 0 25.5 0 24 Q 0 22.5 0 21 Q 0 19.5 0 18 Q 0 16.5 0 15 Q 0 13.5 0 12 Q 0 10.5 0 9 Q 0 7.5 0 6 Q 0 4.5 0 3 Q 0 1.5 0 0 Q 0 0 0 0 Q 1.5 0 3 0 Q 4.5 0 6 0 Q 7.5 0 9 0 Q 10.5 0 12 0 Q 13.5 0 15 0 Q 16.5 0 18 0 Q 19.5 0 21 0 Q 22.5 0 24 0 Q 25.5 0 27 0 Q 28.5 0 30 0 Q 31.5 0 33 0 Q 34.5 0 36 0 Q 37.5 0 39 0 Q 40.5 0 42 0 Q 43.5 0 45 0 Q 46.5 0 48 0 Q 49.5 0 51 0 Q 52.5 0 54 0 Q 55.5 0 57 0 Q 58.5 0 60 0 Q 61.5 0 63 0 Q 64.5 0 66 0 Q 67.5 0 69 0 Q 70.5 0 72 0 Q 73.5 0 75 0 Q 76.5 0 78 0 Q 79.5 0 81 0 Q 82.5 0 84 0 Q 85.5 0 87 0 Q 88.5 0 90 0 Q 91.5 0 93 0 Q 94.5 0 96 0 Q 97.5 0 99 0 Q 100.5 0 102 0 Q 103.5 0 105 0 Q 106.5 0 108 0 Q 109.5 0 111 0 Q 112.5 0 114 0 Q 115.5 0 117 0 Q 118.5 0 120 0 Q 121.5 0 123 0 Q 124.5 0 126 0 Q 127.5 0 129 0 Q 130.5 0 132 0 Q 133.5 0 135 0 Q 136.5 0 138 0 Q 139.5 0 141 0 Q 142.5 0 144 0 Q 145.5 0 147 0 Q 148.5 0 150 0 Q 151.5 0 153 0 Q 154.5 0 156 0 Q 157.5 0 159 0 Q 160.5 0 162 0 Q 163.5 0 165 0 Q 166.5 0 168 0 Q 169.5 0 171 0 Q 172.5 0 174 0 Q 175.5 0 177 0 Q 178.5 0 180 0 Q 181.5 0 183 0 Q 184.5 0 186 0 Q 187.5 0 189 0 Q 190.5 0 192 0 Q 193.5 0 195 0 Q 196.5 0 198 0 Q 199.5 0 201 0 Q 202.5 0 204 0 Q 205.5 0 207 0 Q 208.5 0 210 0 Q 211.5 0 213 0 Q 214.5 0 216 0 Q 217.5 0 219 0 Q 220.5 0 222 0 Q 223.5 0 225 0 Q 226.5 0 228 0 Q 229.5 0 231 0 Q 232.5 0 234 0 Q 235.5 0 237 0 Q 238.5 0 240 0 Q 241.5 0 243 0 Q 244.5 0 246 0 Q 247.5 0 249 0 Q 250.5 0 252 0 Q 253.5 0 255 0 Q 256.5 0 258 0 Q 259.5 0 261 0 Q 262.5 0 264 0 Q 265.5 0 267 0 Q 268.5 0 270 0 Q 271.5 0 273 0 Q 274.5 0 276 0 Q 277.5 0 279 0 Q 280.5 0 282 0 Q 283.5 0 285 0 Q 286.5 0 288 0 Q 289.5 0 291 0 Q 292.5 0 294 0 Q 295.5 0 297 0 Q 298.5 0 300 0 Q 301.5 0 303 0 Q 304.5 0 306 0 Q 307.5 0 309 0 Q 310.5 0 312 0 Q 313.5 0 315 0 Q 316.5 0 318 0 Q 319.5 0 321 0 Q 322.5 0 324 0 Q 325.5 0 327 0 Q 328.5 0 330 0 Q 331.5 0 333 0 Q 334.5 0 336 0 Q 337.5 0 339 0 Q 340.5 0 342 0 Q 343.5 0 345 0 Q 346.5 0 348 0 Q 349.5 0 351 0 Q 352.5 0 354 0 Q 355.5 0 357 0 Q 358.5 0 360 0 Q 361.5 0 363 0 Q 364.5 0 366 0 Q 367.5 0 369 0 Q 370.5 0 372 0 Q 373.5 0 375 0 Q 376.5 0 378 0 Q 379.5 0 381 0 Q 382.5 0 384 0 Q 385.5 0 387 0 Q 388.5 0 390 0 Q 391.5 0 393 0 Q 394.5 0 396 0 Q 397.5 0 399 0 Q 400.5 0 402 0 Q 403.5 0 405 0 Q 406.5 0 408 0 Q 409.5 0 411 0 Q 412.5 0 414 0 Q 415.5 0 417 0 Q 418.5 0 420 0 Q 421.5 0 423 0 Q 424.5 0 426 0 Q 427.5 0 429 0 Q 430.5 0 432 0 Q 433.5 0 435 0 Q 436.5 0 438 0 Q 439.5 0 441 0 Q 442.5 0 444 0 Q 445.5 0 447 0 Q 448.5 0 450 0 Q 451.5 0 453 0 Q 454.5 0 456 0 Q 457.5 0 459 0 Q 460.5 0 462 0 Q 463.5 0 465 0 Q 466.5 0 468 0 Q 469.5 0 471 0 Q 472.5 0 474 0 Q 475.5 0 477 0 Q 478.5 0 480 0 Q 481.5 0 483 0 Q 484.5 0 486 0 Q 487.5 0 489 0 Q 490.5 0 492 0 Q 493.5 0 495 0 Q 496.5 0 498 0 Q 499.5 0 501 0 Q 502.5 0 504 0 Q 505.5 0 507 0 Q 508.5 0 510 0 Q 511.5 0 513 0 Q 514.5 0 516 0 Q 517.5 0 519 0 Q 520.5 0 522 0 Q 523.5 0 525 0 Q 526.5 0 528 0 Q 529.5 0 531 0 Q 532.5 0 534 0 Q 535.5 0 537 0 Q 538.5 0 540 0 Q 541.5 0 543 0 Q 544.5 0 546 0 Q 547.5 0 549 0 Q 550.5 0 552 0 Q 553.5 0 555 0 Q 556.5 0 558 0 Q 559.5 0 561 0 Q 562.5 0 564 0 Q 565.5 0 567 0 Q 568.5 0 570 0 Q 571.5 0 573 0 Q 574.5 0 576 0 Q 577.5 0 579 0 Q 580.5 0 582 0 Q 583.5 0 585 0 Q 586.5 0 588 0 Q 589.5 0 591 0 Q 592.5 0 594 0 Q 595.5 0 597 0 Q 598.5 0 600 0 Q 601.5 0 603 0 Q 604.5 0 606 0 Q 607.5 0 609 0 Q 610.5 0 612 0 Q 613.5 0 615 0 Q 616.5 0 618 0 Q 619.5 0 621 0 Q 622.5 0 624 0 Q 625.5 0 627 0 Q 628.5 0 630 0 Q 631.5 0 633 0 Q 634.5 0 636 0 Q 637.5 0 639 0 Q 640.5 0 642 0 Q 643.5 0 645 0 Q 646.5 0 648 0 Q 649.5 0 651 0 Q 652.5 0 654 0 Q 655.5 0 657 0 Q 658.5 0 660 0 Q 661.5 0 663 0 Q 664.5 0 666 0 Q 667.5 0 669 0 Q 670.5 0 672 0 Q 673.5 0 675 0 Q 676.5 0 678 0 Q 679.5 0 681 0 Q 682.5 0 684 0 Q 685.5 0 687 0 Q 688.5 0 690 0 Q 691.5 0 693 0 Q 694.5 0 696 0 Q 697.5 0 699 0 Q 700.5 0 702 0 Q 703.5 0 705 0 Q 706.5 0 708 0 Q 709.5 0 711 0 Q 712.5 0 714 0 Q 715.5 0 717 0 Q 718.5 0 720 0 Q 721.5 0 723 0 Q 724.5 0 726 0 Q 727.5 0 729 0 Q 730.5 0 732 0 Q 733.5 0 735 0 Q 736.5 0 738 0 Q 739.5 0 741 0 Q 742.5 0 744 0 Q 745.5 0 747 0 Q 748.5 0 750 0 Q 751.5 0 753 0 Q 754.5 0 756 0 Q 757.5 0 759 0 Q 760.5 0 762 0 Q 763.5 0 765 0 Q 766.5 0 768 0 Q 769.5 0 771 0 Q 772.5 0 774 0 Q 775.5 0 777 0 Q 778.5 0 780 0 Q 781.5 0 783 0 Q 784.5 0 786 0 Q 787.5 0 789 0 Q 790.5 0 792 0 Q 793.5 0 795 0 Q 796.5 0 798 0 Q 799.5 0 801 0 Q 802.5 0 804 0 Q 805.5 0 807 0 Q 808.5 0 810 0 Q 811.5 0 813 0 Q 814.5 0 816 0 Q 817.5 0 819 0 Q 820.5 0 822 0 Q 823.5 0 825 0 Q 826.5 0 828 0 Q 829.5 0 831 0 Q 832.5 0 834 0 Q 835.5 0 837 0 Q 838.5 0 840 0 Q 841.5 0 843 0 Q 844.5 0 846 0 Q 847.5 0 849 0 Q 850.5 0 852 0 Q 853.5 0 855 0 Q 856.5 0 858 0 Q 859.5 0 861 0 Q 862.5 0 864 0 Q 865.5 0 867 0 Q 868.5 0 870 0 Q 871.5 0 873 0 Q 874.5 0 876 0 Q 877.5 0 879 0 Q 880.5 0 882 0 Q 883.5 0 885 0 Q 886.5 0 888 0 Q 889.5 0 891 0 Q 892.5 0 894 0 Q 895.5 0 897 0 Q 898.5 0 900 0 Q 901.5 0 903 0 Q 904.5 0 906 0 Q 907.5 0 909 0 Q 910.5 0 912 0 Q 913.5 0 915 0 Q 916.5 0 918 0 Q 919.5 0 921 0 Q 922.5 0 924 0 Q 925.5 0 927 0 Q 928.5 0 930 0 Q 931.5 0 933 0 Q 934.5 0 936 0 Q 937.5 0 939 0 Q 940.5 0 942 0 Q 943.5 0 945 0 Q 946.5 0 948 0 Q 949.5 0 951 0 Q 952.5 0 954 0 Q 955.5 0 957 0 Q 958.5 0 960 0 Q 961.5 0 963 0 Q 964.5 0 966 0 Q 967.5 0 969 0 Q 970.5 0 972 0 Q 973.5 0 975 0 Q 976.5 0 978 0 Q 979.5 0 981 0 Q 982.5 0 984 0 Q 985.5 0 987 0 Q 988.5 0 990 0 Q 991.5 0 993 0 Q 994.5 0 996 0 Q 997.5 0 999 0 Q 1000.5 0 1002 0 Q 1003.5 0 1005 0 Q 1006.5 0 1008 0 Q 1009.5 0 1011 0 Q 1012.5 0 1014 0 Q 1015.5 0 1017 0 Q 1018.5 0 1020 0 Q 1021.5 0 1023 0 Q 1024.5 0 1026 0 Q 1027.5 0 1029 0 Q 1030.5 0 1032 0 Q 1033.5 0 1035 0 Q 1036.5 0 1038 0 Q 1039.5 0 1041 0 Q 1042.5 0 1044 0 Q 1045.5 0 1047 0 Q 1048.5 0 1050 0 Q 1051.5 0 1053 0 Q 1054.5 0 1056 0 Q 1057.5 0 1059 0 Q 1060.5 0 1062 0 Q 1063.5 0 1065 0 Q 1066.5 0 1068 0 Q 1069.5 0 1071 0 Q 1072.5 0 1074 0 Q 1075.5 0 1077 0 Q 1078.5 0 1080 0 Q 1081.5 0 1083 0 Q 1084.5 0 1086 0 Q 1087.5 0 1089 0 Q 1090.5 0 1092 0 Q 1093.5 0 1095 0 Q 1096.5 0 1098 0 Q 1099.5 0 1101 0 Q 1102.5 0 1104 0 Q 1105.5 0 1107 0 Q 1108.5 0 1110 0 Q 1111.5 0 1113 0 Q 1114.5 0 1116 0 Q 1117.5 0 1119 0 Q 1120.5 0 1122 0 Q 1122 0 1122 0 Q 1122 1.5 1122 3 Q 1122 4.5 1122 6 Q 1122 7.5 1122 9 Q 1122 10.5 1122 12 Q 1122 13.5 1122 15 Q 1122 16.5 1122 18 Q 1122 19.5 1122 21 Q 1122 22.5 1122 24 Q 1122 25.5 1122 27 Q 1122 28.5 1122 30 Q 1122 31.5 1122 33 Q 1122 34.5 1122 36 Q 1122 37.5 1122 39 Q 1122 40.5 1122 42 Q 1122 43.5 1122 45 Q 1122 46.5 1122 48 Q 1122 49.5 1122 51 Q 1122 52.5 1122 54 Q 1122 55.5 1122 57 Q 1122 58.5 1122 60 Q 1122 61.5 1122 63 Q 1122 64.5 1122 66 Q 1122 67.5 1122 69 Q 1122 70.5 1122 72 Q 1122 73.5 1122 75 Q 1122 76.5 1122 78 Q 1122 79.5 1122 81 Q 1122 82.5 1122 84 Q 1122 85.5 1122 87 Q 1122 88.5 1122 90 Q 1122 91.5 1122 93 Q 1122 94.5 1122 96 Q 1122 97.5 1122 99 Q 1122 100.5 1122 102 Q 1122 103.5 1122 105 Q 1122 106.5 1122 108 Q 1122 109.5 1122 111 Q 1122 112.5 1122 114 Q 1122 115.5 1122 117 Q 1122 118.5 1122 120 Q 1122 121.5 1122 123 Q 1122 124.5 1122 126 Q 1122 127.5 1122 129 Q 1122 130.5 1122 132 Q 1122 133.5 1122 135 Q 1122 136.5 1122 138 Q 1122 139.5 1122 141 Q 1122 142.5 1122 144 Q 1122 145.5 1122 147 Q 1122 148.5 1122 150 Q 1122 151.5 1122 153 Q 1122 154.5 1122 156 Q 1122 157.5 1122 159 Q 1122 160.5 1122 162 Q 1122 163.5 1122 165 Q 1122 166.5 1122 168 Q 1122 169.5 1122 171 Q 1122 172.5 1122 174 Q 1122 175.5 1122 177 Q 1122 178.5 1122 180 Q 1122 181.5 1122 183 Q 1122 184.5 1122 186 Q 1122 187.5 1122 189 Q 1122 190.5 1122 192 Q 1122 193.5 1122 195 Q 1122 196.5 1122 198 Q 1122 199.5 1122 201 Q 1122 202.5 1122 204 Q 1122 205.5 1122 207 Q 1122 208.5 1122 210 Q 1122 211.5 1122 213 Q 1122 214.5 1122 216 Q 1122 217.5 1122 219 Q 1122 220.5 1122 222 Q 1122 223.5 1122 225 Q 1122 226.5 1122 228 Q 1122 229.5 1122 231 Q 1122 232.5 1122 234 Q 1122 235.5 1122 237 Q 1122 238.5 1122 240 Q 1122 241.5 1122 243 Q 1122 244.5 1122 246 Q 1122 247.5 1122 249 Q 1122 250.5 1122 252 Q 1122 253.5 1122 255 Q 1122 256.5 1122 258 Q 1122 259.5 1122 261 Q 1122 262.5 1122 264 Q 1122 265.5 1122 267 Q 1122 268.5 1122 270 Q 1122 271.5 1122 273 Q 1122 274.5 1122 276 Q 1122 277.5 1122 279 Q 1122 280.5 1122 282 Q 1122 283.5 1122 285 Q 1122 286.5 1122 288 Q 1122 289.5 1122 291 Q 1122 292.5 1122 294 Q 1122 295.5 1122 297 Q 1122 298.5 1122 300 Q 1122 301.5 1122 303 Q 1122 304.5 1122 306 Q 1122 307.5 1122 309 Q 1122 310.5 1122 312 Q 1122 313.5 1122 315 Q 1122 316.5 1122 318 Q 1122 319.5 1122 321 Q 1122 322.5 1122 324 Q 1122 325.5 1122 327 Q 1122 328.5 1122 330 Q 1122 331.5 1122 333 Q 1122 334.5 1122 336 Q 1122 337.5 1122 339 Q 1122 340.5 1122 342 Q 1122 343.5 1122 345 Q 1122 346.5 1122 348 Q 1122 349.5 1122 351 Q 1122 352.5 1122 354 Q 1122 355.5 1122 357 Q 1122 358.5 1122 360 Q 1122 361.5 1122 363 Q 1122 364.5 1122 366 Q 1122 367.5 1122 369 Q 1122 370.5 1122 372 Q 1122 373.5 1122 375 Q 1122 376.5 1122 378 Q 1122 379.5 1122 381 Q 1122 382.5 1122 384 Q 1122 385.5 1122 387 Q 1122 388.5 1122 390 Q 1122 391.5 1122 393 Q 1122 394.5 1122 396 Q 1122 397.5 1122 399 Q 1122 400.5 1122 402 Q 1122 403.5 1122 405 Q 1122 406.5 1122 408 Q 1122 409.5 1122 411 Q 1122 412.5 1122 414 Q 1122 415.5 1122 417 Q 1122 418.5 1122 420 Q 1122 421.5 1122 423 Q 1122 424.5 1122 426 Q 1122 427.5 1122 429 Q 1122 430.5 1122 432 Q 1122 433.5 1122 435 Q 1122 436.5 1122 438 Q 1122 439.5 1122 441 Q 1122 442.5 1122 444 Q 1122 445.5 1122 447 Q 1122 448.5 1122 450 Q 1122 451.5 1122 453 Q 1122 454.5 1122 456 Q 1122 457.5 1122 459 Q 1122 460.5 1122 462 Q 1122 463.5 1122 465 Q 1122 466.5 1122 468 Q 1122 469.5 1122 471 Q 1122 472.5 1122 474 Q 1122 475.5 1122 477 Q 1122 478.5 1122 480 Q 1122 481.5 1122 483 Q 1122 484.5 1122 486 Q 1122 487.5 1122 489 Q 1122 490.5 1122 492 Q 1122 493.5 1122 495 Q 1122 496.5 1122 498 Q 1122 499.5 1122 501 Q 1122 502.5 1122 504 Q 1122 505.5 1122 507 Q 1122 508.5 1122 510 Q 1122 511.5 1122 513 Q 1122 514.5 1122 516 Q 1122 517.5 1122 519 Q 1122 520.5 1122 522 Q 1122 523.5 1122 525 Q 1122 526.5 1122 528 Q 1122 529.5 1122 531 Q 1122 532.5 1122 534 Q 1122 535.5 1122 537 Q 1122 538.5 1122 540 Q 1122 541.5 1122 543 Q 1122 544.5 1122 546 Q 1122 547.5 1122 549 Q 1122 550.5 1122 552 Q 1122 553.5 1122 555 Q 1122 556.5 1122 558 Q 1122 559.5 1122 561 Q 1122 562.5 1122 564 Q 1122 565.5 1122 567 Q 1122 568.5 1122 570 Q 1122 571.5 1122 573 Q 1122 574.5 1122 576 Q 1122 577.5 1122 579 Q 1122 580.5 1122 582 Q 1122 583.5 1122 585 Q 1122 586.5 1122 588 Q 1122 589.5 1122 591 Q 1122 592.5 1122 594 Q 1122 595.5 1122 597 Q 1122 598.5 1122 600 Q 1122 601.5 1122 603 Q 1122 604.5 1122 606 Q 1122 607.5 1122 609 Q 1122 610.5 1122 612 Q 1122 613.5 1122 615 Q 1122 616.5 1122 618 Q 1122 619.5 1122 621 Q 1122 622.5 1122 624 Q 1122 625.5 1122 627 Q 1122 628.5 1122 630 Q 1122 631.5 1122 633 Q 1122 634.5 1122 636 Q 1122 637.5 1122 639 Q 1122 640.5 1122 642 Q 1122 643.5 1122 645 Q 1122 646.5 1122 648 Q 1122 649.5 1122 651 Q 1122 652.5 1122 654 Q 1122 655.5 1122 657 Q 1122 658.5 1122 660 Q 1122 661.5 1122 663 Q 1122 664.5 1122 666 Q 1122 667.5 1122 669 Q 1122 670.5 1122 672 Q 1122 673.5 1122 675 Q 1122 676.5 1122 678 Q 1122 679.5 1122 681 Q 1122 682.5 1122 684 Q 1122 685.5 1122 687 Q 1122 688.5 1122 690 Q 1122 691.5 1122 693 Q 1122 694.5 1122 696 Q 1122 697.5 1122 699 Q 1122 700.5 1122 702 Q 1122 703.5 1122 705 Q 1122 706.5 1122 708 Q 1122 709.5 1122 711 Q 1122 712.5 1122 714 Q 1122 715.5 1122 717 Q 1122 718.5 1122 720 Q 1122 721.5 1122 723 Q 1122 724.5 1122 726 Q 1122 727.5 1122 729 Q 1122 730.5 1122 732 Q 1122 733.5 1122 735 Q 1122 736.5 1122 738 Q 1122 739.5 1122 741 Q 1122 742.5 1122 744 Q 1122 745.5 1122 747 Q 1122 748.5 1122 750 Q 1122 751.5 1122 753 Q 1122 753 1122 753 Q 1120.5 753 1119 753 Q 1117.5 753 1116 753 Q 1114.5 753 1113 753 Q 1111.5 753 1110 753 Q 1108.5 753 1107 753 Q 1105.5 753 1104 753 Q 1102.5 753 1101 753 Q 1099.5 753 1098 753 Q 1096.5 753 1095 753 Q 1093.5 753 1092 753 Q 1090.5 753 1089 753 Q 1087.5 753 1086 753 Q 1084.5 753 1083 753 Q 1081.5 753 1080 753 Q 1078.5 753 1077 753 Q 1075.5 753 1074 753 Q 1072.5 753 1071 753 Q 1069.5 753 1068 753 Q 1066.5 753 1065 753 Q 1065 753 1065 753 Q 1065 753 1065 753 Q 1065 749.25 1065 745.5 Q 1065.75 740.625 1066.5 735.75 Q 1067.25 730.125 1068 724.5 Q 1069.125 720 1070.25 715.5 Q 1071 710.25 1071.75 705 Q 1072.875 699.75 1074 694.5 Q 1074.75 689.625 1075.5 684.75 Q 1076.25 679.125 1077 673.5 Q 1078.125 669 1079.25 664.5 Q 1079.625 658.5 1080 652.5 Q 1080 646.5 1080 640.5 Q 1078.5 635.625 1077 630.75 Q 1075.5 626.25 1074 621.75 Q 1072.125 617.25 1070.25 612.75 Q 1068.75 608.625 1067.25 604.5 Q 1065.75 600 1064.25 595.5 Q 1062.75 591 1061.25 586.5 Q 1059.375 582.375 1057.5 578.25 Q 1056.75 572.625 1056 567 Q 1056 567 1056 567 Q 1056 567 1056 567 Q 1057.125 565.125 1058.25 563.25 Q 1062 561.375 1065.75 559.5 Q 1067.625 555.375 1069.5 551.25 Q 1066.875 547.5 1064.25 543.75 Q 1062 540.375 1059.75 537 Q 1057.5 532.875 1055.25 528.75 Q 1053 525.375 1050.75 522 Q 1048.125 518.25 1045.5 514.5 Q 1043.625 510.75 1041.75 507 Q 1039.125 503.25 1036.5 499.5 Q 1034.625 495.75 1032.75 492 Q 1030.125 488.25 1027.5 484.5 Q 1025.625 480.75 1023.75 477 Q 1021.125 473.25 1018.5 469.5 Q 1015.125 466.5 1011.75 463.5 Q 1008.375 461.25 1005 459 Q 1000.875 456.75 996.75 454.5 Q 992.25 453 987.75 451.5 Q 982.875 450.375 978 449.25 Q 972.75 448.125 967.5 447 Q 962.25 446.625 957 446.25 Q 951.75 445.125 946.5 444 Q 942.75 444 939 444 Q 939 444 939 444 Q 939 444 939 444 Q 936.375 443.25 933.75 442.5 Q 928.5 441.75 923.25 441 Q 921 438 918.75 435 Q 918.375 433.5 918 432 Q 918 432 918 432 Q 918 432 918 432 Q 921.75 432 925.5 432 Q 931.5 432 937.5 432 Q 943.5 432 949.5 432 Q 955.5 432 961.5 432 Q 967.5 432 973.5 432 Q 978 433.125 982.5 434.25 Q 987 432 991.5 429.75 Q 993.375 425.625 995.25 421.5 Q 996 416.25 996.75 411 Q 997.5 405.75 998.25 400.5 Q 997.125 396 996 391.5 Q 995.25 385.875 994.5 380.25 Q 993 375.75 991.5 371.25 Q 988.875 367.5 986.25 363.75 Q 983.625 360.375 981 357 Q 977.625 354.375 974.25 351.75 Q 971.625 348.375 969 345 Q 967.125 341.25 965.25 337.5 Q 964.125 333 963 328.5 Q 961.5 323.625 960 318.75 Q 959.25 313.5 958.5 308.25 Q 957 303.75 955.5 299.25 Q 952.875 295.5 950.25 291.75 Q 947.625 288.375 945 285 Q 942 282 939 279 Q 934.875 276.75 930.75 274.5 Q 926.625 272.625 922.5 270.75 Q 918 269.25 913.5 267.75 Q 909 266.25 904.5 264.75 Q 898.5 264.375 892.5 264 Q 886.5 264 880.5 264 Q 874.5 264.375 868.5 264.75 Q 864 266.25 859.5 267.75 Q 855.375 269.625 851.25 271.5 Q 847.5 274.125 843.75 276.75 Q 840.375 279.375 837 282 Q 834.375 285.375 831.75 288.75 Q 829.125 292.5 826.5 296.25 Q 824.625 300.375 822.75 304.5 Q 822.375 310.125 822 315.75 Q 820.5 320.625 819 325.5 Q 819 331.5 819 337.5 Q 819 343.5 819 349.5 Q 817.125 352.875 815.25 356.25 Q 813.75 361.125 812.25 366 Q 810.375 369.75 808.5 373.5 Q 806.25 378 804 382.5 Q 802.875 387 801.75 391.5 Q 801.375 397.5 801 403.5 Q 802.5 408.375 804 413.25 Q 806.25 417.375 808.5 421.5 Q 811.125 424.875 813.75 428.25 Q 818.625 430.125 823.5 432 Q 829.5 432 835.5 432 Q 841.5 432 847.5 432 Q 853.5 432 859.5 432 Q 864.75 432 870 432 Q 870 432 870 432 Q 870 432 870 432 Q 870 435.75 870 439.5 Q 868.5 442.875 867 446.25 Q 861 446.625 855 447 Q 855 447 855 447 Q 855 447 855 447 Q 852.375 448.5 849.75 450 Q 844.125 450.375 838.5 450.75 Q 834 451.875 829.5 453 Q 823.5 453.375 817.5 453.75 Q 813.375 455.625 809.25 457.5 Q 805.875 460.5 802.5 463.5 Q 799.875 467.25 797.25 471 Q 795.375 475.125 793.5 479.25 Q 792.75 484.5 792 489.75 Q 790.5 494.625 789 499.5 Q 788.25 504.375 787.5 509.25 Q 786.375 514.125 785.25 519 Q 784.125 523.875 783 528.75 Q 781.5 533.25 780 537.75 Q 778.5 542.625 777 547.5 Q 775.875 552 774.75 556.5 Q 773.25 561 771.75 565.5 Q 771.375 572.25 771 579 Q 771 579 771 579 Q 771 579 771 579 Q 771 582.375 771 585.75 Q 769.125 589.5 767.25 593.25 Q 763.5 592.875 759.75 592.5 Q 756.375 590.25 753 588 Q 749.625 585.375 746.25 582.75 Q 742.5 580.125 738.75 577.5 Q 735.375 575.25 732 573 Q 728.25 570.75 724.5 568.5 Q 720.75 565.875 717 563.25 Q 713.625 561 710.25 558.75 Q 706.5 556.125 702.75 553.5 Q 699.375 551.25 696 549 Q 692.625 546.375 689.25 543.75 Q 685.5 541.125 681.75 538.5 Q 678.375 536.25 675 534 Q 672 531.75 669 529.5 Q 670.5 525 672 520.5 Q 672 518.25 672 516 Q 672 516 672 516 Q 672 516 672 516 Q 675.375 515.25 678.75 514.5 Q 681.375 510 684 505.5 Q 682.875 500.25 681.75 495 Q 681.375 489.75 681 484.5 Q 681 478.5 681 472.5 Q 679.875 467.25 678.75 462 Q 678.375 456.75 678 451.5 Q 678 445.5 678 439.5 Q 676.875 434.25 675.75 429 Q 673.125 424.875 670.5 420.75 Q 664.875 421.125 659.25 421.5 Q 654.375 422.25 649.5 423 Q 644.25 424.125 639 425.25 Q 634.875 427.875 630.75 430.5 Q 630.375 436.5 630 442.5 Q 630 448.5 630 454.5 Q 631.5 459.375 633 464.25 Q 633 466.125 633 468 Q 633 468 633 468 Q 633 468 633 468 Q 630.75 470.25 628.5 472.5 Q 625.5 475.875 622.5 479.25 Q 620.625 483.375 618.75 487.5 Q 617.25 492 615.75 496.5 Q 616.125 502.125 616.5 507.75 Q 617.625 512.625 618.75 517.5 Q 620.625 521.625 622.5 525.75 Q 625.125 529.5 627.75 533.25 Q 630.375 536.625 633 540 Q 636 543 639 546 Q 642 549 645 552 Q 648 555 651 558 Q 654 561 657 564 Q 660 567 663 570 Q 666 573 669 576 Q 672 579 675 582 Q 678 585 681 588 Q 684 591 687 594 Q 690 597 693 600 Q 696 603 699 606 Q 702 609 705 612 Q 708 615 711 618 Q 714 621 717 624 Q 720 627 723 630 Q 726 633 729 636 Q 732 639 735 642 Q 738 645 741 648 Q 744 651 747 654 Q 750 657 753 660 Q 756 663 759 666 Q 763.125 668.25 767.25 670.5 Q 772.875 671.25 778.5 672 Q 784.125 671.25 789.75 670.5 Q 793.875 668.25 798 666 Q 800.25 661.875 802.5 657.75 Q 804.375 654 806.25 650.25 Q 808.125 645.75 810 641.25 Q 811.875 637.125 813.75 633 Q 815.25 628.5 816.75 624 Q 819.375 619.5 822 615 Q 822 615 822 615 Q 822 615 822 615 Q 823.5 616.125 825 617.25 Q 825 622.875 825 628.5 Q 826.5 633.375 828 638.25 Q 829.125 643.125 830.25 648 Q 833.625 651.375 837 654.75 Q 838.5 657.375 840 660 Q 840 660 840 660 Q 840 660 840 660 Q 839.625 663 839.25 666 Q 837 669.375 834.75 672.75 Q 832.5 676.875 830.25 681 Q 828.75 685.5 827.25 690 Q 825.375 694.125 823.5 698.25 Q 822 702.75 820.5 707.25 Q 819 711.75 817.5 716.25 Q 816.375 721.125 815.25 726 Q 814.125 730.875 813 735.75 Q 811.5 740.625 810 745.5 Q 808.5 749.25 807 753 Q 807 753 807 753 Q 807 753 807 753 Q 805.5 753 804 753 Q 802.5 753 801 753 Q 799.5 753 798 753 Q 796.5 753 795 753 Q 793.5 753 792 753 Q 790.5 753 789 753 Q 787.5 753 786 753 Q 784.5 753 783 753 Q 781.5 753 780 753 Q 778.5 753 777 753 Q 775.5 753 774 753 Q 772.5 753 771 753 Q 769.5 753 768 753 Q 766.5 753 765 753 Q 763.5 753 762 753 Q 760.5 753 759 753 Q 757.5 753 756 753 Q 754.5 753 753 753 Q 751.5 753 750 753 Q 748.5 753 747 753 Q 745.5 753 744 753 Q 742.5 753 741 753 Q 739.5 753 738 753 Q 736.5 753 735 753 Q 733.5 753 732 753 Q 730.5 753 729 753 Q 727.5 753 726 753 Q 724.5 753 723 753 Q 721.5 753 720 753 Q 718.5 753 717 753 Q 715.5 753 714 753 Q 712.5 753 711 753 Q 709.5 753 708 753 Q 706.5 753 705 753 Q 703.5 753 702 753 Q 700.5 753 699 753 Q 697.5 753 696 753 Q 694.5 753 693 753 Q 691.5 753 690 753 Q 688.5 753 687 753 Q 685.5 753 684 753 Q 682.5 753 681 753 Q 679.5 753 678 753 Q 676.5 753 675 753 Q 673.5 753 672 753 Q 670.5 753 669 753 Q 667.5 753 666 753 Q 664.5 753 663 753 Q 661.5 753 660 753 Q 658.5 753 657 753 Q 655.5 753 654 753 Q 652.5 753 651 753 Q 649.5 753 648 753 Q 646.5 753 645 753 Q 643.5 753 642 753 Q 640.5 753 639 753 Q 637.5 753 636 753 Q 634.5 753 633 753 Q 631.5 753 630 753 Q 628.5 753 627 753 Q 625.5 753 624 753 Q 622.5 753 621 753 Q 619.5 753 618 753 Q 616.5 753 615 753 Q 613.5 753 612 753 Q 610.5 753 609 753 Q 607.5 753 606 753 Q 604.5 753 603 753 Q 601.5 753 600 753 Q 598.5 753 597 753 Q 595.5 753 594 753 Q 592.5 753 591 753 Q 589.5 753 588 753 Q 586.5 753 585 753 Q 583.5 753 582 753 Q 580.5 753 579 753 Q 577.5 753 576 753 Q 574.5 753 573 753 Q 571.5 753 570 753 Q 568.5 753 567 753 Q 565.5 753 564 753 Q 562.5 753 561 753 Q 559.5 753 558 753 Q 556.5 753 555 753 Q 553.5 753 552 753 Q 550.5 753 549 753 Q 547.5 753 546 753 Q 544.5 753 543 753 Q 541.5 753 540 753 Q 538.5 753 537 753 Q 535.5 753 534 753 Q 532.5 753 531 753 Q 529.5 753 528 753 Q 526.5 753 525 753 Q 523.5 753 522 753 Q 520.5 753 519 753 Q 517.5 753 516 753 Q 514.5 753 513 753 Q 511.5 753 510 753 Q 508.5 753 507 753 Q 505.5 753 504 753 Q 502.5 753 501 753 Q 499.5 753 498 753 Q 496.5 753 495 753 Q 493.5 753 492 753 Q 490.5 753 489 753 Q 487.5 753 486 753 Q 484.5 753 483 753 Q 481.5 753 480 753 Q 478.5 753 477 753 Q 475.5 753 474 753 Q 472.5 753 471 753 Q 469.5 753 468 753 Q 466.5 753 465 753 Q 463.5 753 462 753 Q 460.5 753 459 753 Q 457.5 753 456 753 Q 454.5 753 453 753 Q 451.5 753 450 753 Q 448.5 753 447 753 Q 445.5 753 444 753 Q 442.5 753 441 753 Q 439.5 753 438 753 Q 436.5 753 435 753 Q 433.5 753 432 753 Q 430.5 753 429 753 Q 427.5 753 426 753 Q 424.5 753 423 753 Q 421.5 753 420 753 Q 418.5 753 417 753 Q 415.5 753 414 753 Q 412.5 753 411 753 Q 409.5 753 408 753 Q 406.5 753 405 753 Q 403.5 753 402 753 Q 400.5 753 399 753 Q 399 753 399 753 Q 399 753 399 753 Q 399 753 399 753 Q 399 749.25 399 745.5 Q 397.5 740.625 396 735.75 Q 396 730.125 396 724.5 Q 394.875 719.25 393.75 714 Q 393.375 708.75 393 703.5 Q 391.875 698.25 390.75 693 Q 390.375 687.75 390 682.5 Q 388.5 677.625 387 672.75 Q 386.625 667.125 386.25 661.5 Q 385.125 657 384 652.5 Q 383.25 646.875 382.5 641.25 Q 382.875 638.625 383.25 636 Q 387 637.125 390.75 638.25 Q 395.625 640.125 400.5 642 Q 405 643.125 409.5 644.25 Q 413.25 641.25 417 638.25 Q 420 636 423 633.75 Q 426.75 631.125 430.5 628.5 Q 433.5 625.5 436.5 622.5 Q 439.5 619.125 442.5 615.75 Q 444.75 612.375 447 609 Q 450 606 453 603 Q 456 600 459 597 Q 462 594 465 591 Q 467.25 587.25 469.5 583.5 Q 472.5 580.5 475.5 577.5 Q 478.5 574.5 481.5 571.5 Q 484.5 568.5 487.5 565.5 Q 490.5 562.125 493.5 558.75 Q 495.75 555.375 498 552 Q 501 549 504 546 Q 507 543 510 540 Q 513 537 516 534 Q 518.625 530.625 521.25 527.25 Q 523.875 523.5 526.5 519.75 Q 527.25 516.375 528 513 Q 528 513 528 513 Q 528 513 528 513 Q 531.375 511.875 534.75 510.75 Q 536.625 506.625 538.5 502.5 Q 541.5 499.5 544.5 496.5 Q 547.875 493.875 551.25 491.25 Q 554.625 488.625 558 486 Q 561 483 564 480 Q 566.25 475.875 568.5 471.75 Q 570 467.25 571.5 462.75 Q 572.25 457.125 573 451.5 Q 571.5 446.25 570 441 Q 570 441 570 441 Q 570 441 570 441 Q 570.375 438 570.75 435 Q 572.625 430.875 574.5 426.75 Q 576.375 423 578.25 419.25 Q 580.5 415.125 582.75 411 Q 583.5 405.75 584.25 400.5 Q 581.25 397.125 578.25 393.75 Q 574.125 391.5 570 389.25 Q 566.25 387.375 562.5 385.5 Q 558.75 382.875 555 380.25 Q 550.5 382.125 546 384 Q 546 384 546 384 Q 546 384 546 384 Q 542.625 385.125 539.25 386.25 Q 537 390.375 534.75 394.5 Q 533.25 398.625 531.75 402.75 Q 529.5 406.875 527.25 411 Q 525.375 415.125 523.5 419.25 Q 519.75 422.625 516 426 Q 516 426 516 426 Q 516 426 516 426 Q 512.25 426.375 508.5 426.75 Q 505.5 430.5 502.5 434.25 Q 501.75 439.5 501 444.75 Q 499.5 449.625 498 454.5 Q 499.125 459.75 500.25 465 Q 501.75 469.5 503.25 474 Q 502.125 477 501 480 Q 498 483 495 486 Q 495 486 495 486 Q 495 486 495 486 Q 492.75 485.25 490.5 484.5 Q 487.125 481.5 483.75 478.5 Q 478.875 479.25 474 480 Q 471 482.625 468 485.25 Q 464.25 487.875 460.5 490.5 Q 457.125 493.125 453.75 495.75 Q 450.375 498.375 447 501 Q 444 503.625 441 506.25 Q 437.25 508.875 433.5 511.5 Q 430.125 514.125 426.75 516.75 Q 423.375 519.375 420 522 Q 416.625 524.25 413.25 526.5 Q 409.875 529.5 406.5 532.5 Q 403.5 532.5 400.5 532.5 Q 399.375 528 398.25 523.5 Q 396.75 519 395.25 514.5 Q 393.75 510 392.25 505.5 Q 390.75 501 389.25 496.5 Q 387.75 492 386.25 487.5 Q 384.375 483.375 382.5 479.25 Q 380.625 475.125 378.75 471 Q 376.875 466.875 375 462.75 Q 372.75 458.625 370.5 454.5 Q 368.625 450.75 366.75 447 Q 364.125 443.25 361.5 439.5 Q 359.25 435.75 357 432 Q 354 429 351 426 Q 348 423 345 420 Q 342 417 339 414 Q 334.875 411.75 330.75 409.5 Q 326.625 407.625 322.5 405.75 Q 316.875 405.375 311.25 405 Q 306.75 404.25 302.25 403.5 Q 297.375 404.25 292.5 405 Q 290.25 402.75 288 400.5 Q 286.875 394.875 285.75 389.25 Q 282.375 388.125 279 387 Q 279 387 279 387 Q 279 387 279 387 Q 279 385.5 279 384 Q 279 382.5 279 381 Q 279 381 279 381 Q 279 381 279 381 Q 278.25 378.75 277.5 376.5 Q 276.75 375 276 373.5 Q 276 369.75 276 366 Q 276 366 276 366 Q 276 366 276 366 Q 278.25 365.625 280.5 365.25 Q 284.625 363.375 288.75 361.5 Q 292.125 358.5 295.5 355.5 Q 298.5 352.5 301.5 349.5 Q 304.125 345.75 306.75 342 Q 308.25 337.5 309.75 333 Q 310.875 328.125 312 323.25 Q 315.375 321 318.75 318.75 Q 319.875 313.125 321 307.5 Q 321 301.5 321 295.5 Q 318.375 291 315.75 286.5 Q 313.875 285.75 312 285 Q 312 285 312 285 Q 312 285 312 285 Q 313.875 282 315.75 279 Q 316.875 273.75 318 268.5 Q 317.25 262.875 316.5 257.25 Q 314.625 253.125 312.75 249 Q 312.75 244.5 312.75 240 Q 313.875 234.75 315 229.5 Q 314.625 223.5 314.25 217.5 Q 312.375 213.375 310.5 209.25 Q 307.125 205.875 303.75 202.5 Q 299.625 200.625 295.5 198.75 Q 291 197.25 286.5 195.75 Q 280.875 196.125 275.25 196.5 Q 270.375 197.625 265.5 198.75 Q 261.375 200.625 257.25 202.5 Q 253.125 204.75 249 207 Q 245.625 209.25 242.25 211.5 Q 238.875 214.5 235.5 217.5 Q 232.125 220.125 228.75 222.75 Q 224.625 223.875 220.5 225 Q 215.25 226.125 210 227.25 Q 205.125 228.375 200.25 229.5 Q 196.125 231.75 192 234 Q 189 237 186 240 Q 183.375 243.375 180.75 246.75 Q 178.875 251.625 177 256.5 Q 177.375 262.5 177.75 268.5 Q 179.25 273 180.75 277.5 Q 182.625 281.625 184.5 285.75 Q 185.25 291.375 186 297 Q 186 297 186 297 Q 186 297 186 297 Q 184.5 298.5 183 300 Q 180.375 303.75 177.75 307.5 Q 177.75 313.5 177.75 319.5 Q 180.375 323.25 183 327 Q 186.375 329.625 189.75 332.25 Q 194.625 333.75 199.5 335.25 Q 203.625 334.125 207.75 333 Q 210 336 212.25 339 Q 214.875 342.75 217.5 346.5 Q 218.25 351 219 355.5 Q 218.625 360.75 218.25 366 Q 218.25 370.5 218.25 375 Q 218.625 381 219 387 Q 219 387 219 387 Q 219 387 219 387 Q 215.25 387.375 211.5 387.75 Q 209.25 392.625 207 397.5 Q 205.875 401.25 204.75 405 Q 199.125 405 193.5 405 Q 187.875 405.75 182.25 406.5 Q 177.75 408 173.25 409.5 Q 169.125 411.375 165 413.25 Q 161.25 415.875 157.5 418.5 Q 154.125 421.125 150.75 423.75 Q 148.125 427.125 145.5 430.5 Q 142.5 433.875 139.5 437.25 Q 137.625 441 135.75 444.75 Q 133.5 448.875 131.25 453 Q 130.125 457.875 129 462.75 Q 127.5 467.625 126 472.5 Q 125.625 477.75 125.25 483 Q 124.125 488.25 123 493.5 Q 121.875 498 120.75 502.5 Q 120 507.75 119.25 513 Q 118.125 518.25 117 523.5 Q 116.25 528.375 115.5 533.25 Q 114.75 538.5 114 543.75 Q 112.5 548.625 111 553.5 Q 110.625 558.75 110.25 564 Q 109.125 569.25 108 574.5 Q 106.875 579 105.75 583.5 Q 105.375 589.125 105 594.75 Q 103.5 599.625 102 604.5 Q 101.25 609.375 100.5 614.25 Q 99.75 619.5 99 624.75 Q 97.5 629.625 96 634.5 Q 95.625 639.75 95.25 645 Q 94.125 650.25 93 655.5 Q 91.875 660 90.75 664.5 Q 90.375 670.125 90 675.75 Q 88.5 680.625 87 685.5 Q 86.25 690.375 85.5 695.25 Q 84.75 700.875 84 706.5 Q 82.875 711 81.75 715.5 Q 81 720.75 80.25 726 Q 79.125 731.25 78 736.5 Q 76.875 741 75.75 745.5 Q 73.875 749.25 72 753 Z" style="stroke: rgb(0, 0, 0); stroke-width: 1px; fill: rgb(0, 0, 0);"></path><g class="label" transform="translate(577.0447787656591,131.12290376565906)"><svg width="142.33231746868188" height="142.33231746868188" overflow="visible" viewBox="-50 -50 100 100" preserveAspectRatio="xMidYMid meet"><text font-family="Tahoma" font-size="40" dominant-baseline="middle" text-anchor="middle" fill="#000">0</text></svg></g><path data-facetId="1" d="M 186 297 Q 185.25 291.375 184.5 285.75 Q 182.625 281.625 180.75 277.5 Q 179.25 273 177.75 268.5 Q 177.375 262.5 177 256.5 Q 178.875 251.625 180.75 246.75 Q 183.375 243.375 186 240 Q 189 237 192 234 Q 196.125 231.75 200.25 229.5 Q 205.125 228.375 210 227.25 Q 215.25 226.125 220.5 225 Q 224.625 223.875 228.75 222.75 Q 232.125 220.125 235.5 217.5 Q 238.875 214.5 242.25 211.5 Q 245.625 209.25 249 207 Q 253.125 204.75 257.25 202.5 Q 261.375 200.625 265.5 198.75 Q 270.375 197.625 275.25 196.5 Q 280.875 196.125 286.5 195.75 Q 291 197.25 295.5 198.75 Q 299.625 200.625 303.75 202.5 Q 307.125 205.875 310.5 209.25 Q 312.375 213.375 314.25 217.5 Q 314.625 223.5 315 229.5 Q 313.875 234.75 312.75 240 Q 312.75 244.5 312.75 249 Q 314.625 253.125 316.5 257.25 Q 317.25 262.875 318 268.5 Q 316.875 273.75 315.75 279 Q 313.875 282 312 285 Q 312 285 312 285 Q 310.5 283.5 309 282 Q 307.5 280.875 306 279.75 Q 306 274.125 306 268.5 Q 304.125 263.625 302.25 258.75 Q 300 255 297.75 251.25 Q 293.25 251.625 288.75 252 Q 283.5 252.75 278.25 253.5 Q 273.375 254.25 268.5 255 Q 262.5 255 256.5 255 Q 250.5 255 244.5 255 Q 240 253.875 235.5 252.75 Q 230.25 253.875 225 255 Q 222 258 219 261 Q 217.125 265.5 215.25 270 Q 214.125 275.25 213 280.5 Q 213 286.5 213 292.5 Q 211.125 294.75 209.25 297 Q 204.375 295.5 199.5 294 Q 194.25 294 189 294 Q 187.5 295.5 186 297 Z" style="stroke: rgb(0, 0, 0); stroke-width: 1px; fill: rgb(0, 36, 80);"></path><g class="label" transform="translate(253.9563215139171,198.2688215139171)"><svg width="54.91548197216579" height="54.91548197216579" overflow="visible" viewBox="-50 -50 100 100" preserveAspectRatio="xMidYMid meet"><text font-family="Tahoma" font-size="40" dominant-baseline="middle" text-anchor="middle" fill="#000">1</text></svg></g><path data-facetId="2" d="M 189 294 Q 194.25 294 199.5 294 Q 204.375 295.5 209.25 297 Q 211.125 294.75 213 292.5 Q 213 286.5 213 280.5 Q 214.125 275.25 215.25 270 Q 217.125 265.5 219 261 Q 222 258 225 255 Q 230.25 253.875 235.5 252.75 Q 240 253.875 244.5 255 Q 250.5 255 256.5 255 Q 262.5 255 268.5 255 Q 273.375 254.25 278.25 253.5 Q 283.5 252.75 288.75 252 Q 293.25 251.625 297.75 251.25 Q 300 255 302.25 258.75 Q 304.125 263.625 306 268.5 Q 306 274.125 306 279.75 Q 307.5 280.875 309 282 Q 309 282 309 282 Q 310.5 283.5 312 285 Q 313.875 285.75 315.75 286.5 Q 318.375 291 321 295.5 Q 321 301.5 321 307.5 Q 319.875 313.125 318.75 318.75 Q 315.375 321 312 323.25 Q 310.875 328.125 309.75 333 Q 308.25 337.5 306.75 342 Q 304.125 345.75 301.5 349.5 Q 298.5 352.5 295.5 355.5 Q 292.125 358.5 288.75 361.5 Q 284.625 363.375 280.5 365.25 Q 278.25 365.625 276 366 Q 276 366 276 366 Q 274.5 366 273 366 Q 269.25 366 265.5 366 Q 260.625 365.25 255.75 364.5 Q 253.125 367.125 250.5 369.75 Q 254.25 372.75 258 375.75 Q 261.75 377.625 265.5 379.5 Q 270.75 381.75 276 384 Q 276 384 276 384 Q 277.5 382.5 279 381 Q 279 382.5 279 384 Q 279 385.5 279 387 Q 279 387 279 387 Q 277.5 387 276 387 Q 272.25 387 268.5 387 Q 262.5 387 256.5 387 Q 250.5 387 244.5 387 Q 238.5 387 232.5 387 Q 227.25 387 222 387 Q 222 387 222 387 Q 220.5 387 219 387 Q 218.625 381 218.25 375 Q 218.25 370.5 218.25 366 Q 218.625 360.75 219 355.5 Q 218.25 351 217.5 346.5 Q 214.875 342.75 212.25 339 Q 210 336 207.75 333 Q 203.625 334.125 199.5 335.25 Q 194.625 333.75 189.75 332.25 Q 186.375 329.625 183 327 Q 180.375 323.25 177.75 319.5 Q 177.75 313.5 177.75 307.5 Q 180.375 303.75 183 300 Q 184.5 298.5 186 297 Q 187.5 295.5 189 294 Z" style="stroke: rgb(0, 0, 0); stroke-width: 1px; fill: rgb(251, 213, 178);"></path><g class="label" transform="translate(224.77474128001842,278.3294287800184)"><svg width="73.22395493996319" height="73.22395493996319" overflow="visible" viewBox="-50 -50 100 100" preserveAspectRatio="xMidYMid meet"><text font-family="Tahoma" font-size="40" dominant-baseline="middle" text-anchor="middle" fill="#000">4</text></svg></g><path data-facetId="3" d="M 870 432 Q 864.75 432 859.5 432 Q 853.5 432 847.5 432 Q 841.5 432 835.5 432 Q 829.5 432 823.5 432 Q 818.625 430.125 813.75 428.25 Q 811.125 424.875 808.5 421.5 Q 806.25 417.375 804 413.25 Q 802.5 408.375 801 403.5 Q 801.375 397.5 801.75 391.5 Q 802.875 387 804 382.5 Q 806.25 378 808.5 373.5 Q 810.375 369.75 812.25 366 Q 813.75 361.125 815.25 356.25 Q 817.125 352.875 819 349.5 Q 819 343.5 819 337.5 Q 819 331.5 819 325.5 Q 820.5 320.625 822 315.75 Q 822.375 310.125 822.75 304.5 Q 824.625 300.375 826.5 296.25 Q 829.125 292.5 831.75 288.75 Q 834.375 285.375 837 282 Q 840.375 279.375 843.75 276.75 Q 847.5 274.125 851.25 271.5 Q 855.375 269.625 859.5 267.75 Q 864 266.25 868.5 264.75 Q 874.5 264.375 880.5 264 Q 886.5 264 892.5 264 Q 898.5 264.375 904.5 264.75 Q 909 266.25 913.5 267.75 Q 918 269.25 922.5 270.75 Q 926.625 272.625 930.75 274.5 Q 934.875 276.75 939 279 Q 942 282 945 285 Q 947.625 288.375 950.25 291.75 Q 952.875 295.5 955.5 299.25 Q 957 303.75 958.5 308.25 Q 959.25 313.5 960 318.75 Q 961.5 323.625 963 328.5 Q 964.125 333 965.25 337.5 Q 967.125 341.25 969 345 Q 971.625 348.375 974.25 351.75 Q 977.625 354.375 981 357 Q 983.625 360.375 986.25 363.75 Q 988.875 367.5 991.5 371.25 Q 993 375.75 994.5 380.25 Q 995.25 385.875 996 391.5 Q 997.125 396 998.25 400.5 Q 997.5 405.75 996.75 411 Q 996 416.25 995.25 421.5 Q 993.375 425.625 991.5 429.75 Q 987 432 982.5 434.25 Q 978 433.125 973.5 432 Q 967.5 432 961.5 432 Q 955.5 432 949.5 432 Q 943.5 432 937.5 432 Q 931.5 432 925.5 432 Q 921.75 432 918 432 Q 918 432 918 432 Q 918 430.5 918 429 Q 918 425.25 918 421.5 Q 916.5 416.625 915 411.75 Q 915 406.5 915 401.25 Q 917.25 397.5 919.5 393.75 Q 921.75 390.375 924 387 Q 926.25 382.875 928.5 378.75 Q 931.5 376.875 934.5 375 Q 939.75 373.5 945 372 Q 948 369 951 366 Q 952.5 360.75 954 355.5 Q 952.125 350.625 950.25 345.75 Q 947.25 342.75 944.25 339.75 Q 939.375 337.875 934.5 336 Q 929.625 337.875 924.75 339.75 Q 921 340.875 917.25 342 Q 914.625 339 912 336 Q 909.375 332.625 906.75 329.25 Q 901.875 327.75 897 326.25 Q 892.125 325.125 887.25 324 Q 882.75 322.5 878.25 321 Q 873.75 319.5 869.25 318 Q 865.125 316.125 861 314.25 Q 856.125 313.875 851.25 313.5 Q 847.875 316.5 844.5 319.5 Q 841.125 322.5 837.75 325.5 Q 837.375 331.125 837 336.75 Q 835.125 340.875 833.25 345 Q 832.125 350.25 831 355.5 Q 832.875 360.375 834.75 365.25 Q 835.875 369.375 837 373.5 Q 838.875 378.375 840.75 383.25 Q 842.625 387 844.5 390.75 Q 847.5 394.125 850.5 397.5 Q 853.875 400.5 857.25 403.5 Q 861 405.375 864.75 407.25 Q 867.375 409.125 870 411 Q 870 411 870 411 Q 870 411 870 411 Q 870 413.25 870 415.5 Q 870 418.5 870 421.5 Q 870 425.25 870 429 Q 870 429 870 429 Q 870 429 870 429 Q 870 429 870 429 Q 870 430.5 870 432 Z" style="stroke: rgb(0, 0, 0); stroke-width: 1px; fill: rgb(0, 36, 80);"></path><g class="label" transform="translate(933.9133156060902,371.8117531060903)"><svg width="58.71243128781941" height="58.71243128781941" overflow="visible" viewBox="-50 -50 100 100" preserveAspectRatio="xMidYMid meet"><text font-family="Tahoma" font-size="40" dominant-baseline="middle" text-anchor="middle" fill="#000">1</text></svg></g><path data-facetId="4" d="M 870 411 Q 867.375 409.125 864.75 407.25 Q 861 405.375 857.25 403.5 Q 853.875 400.5 850.5 397.5 Q 847.5 394.125 844.5 390.75 Q 842.625 387 840.75 383.25 Q 838.875 378.375 837 373.5 Q 835.875 369.375 834.75 365.25 Q 832.875 360.375 831 355.5 Q 832.125 350.25 833.25 345 Q 835.125 340.875 837 336.75 Q 837.375 331.125 837.75 325.5 Q 841.125 322.5 844.5 319.5 Q 847.875 316.5 851.25 313.5 Q 856.125 313.875 861 314.25 Q 865.125 316.125 869.25 318 Q 873.75 319.5 878.25 321 Q 882.75 322.5 887.25 324 Q 892.125 325.125 897 326.25 Q 901.875 327.75 906.75 329.25 Q 909.375 332.625 912 336 Q 914.625 339 917.25 342 Q 921 340.875 924.75 339.75 Q 929.625 337.875 934.5 336 Q 939.375 337.875 944.25 339.75 Q 947.25 342.75 950.25 345.75 Q 952.125 350.625 954 355.5 Q 952.5 360.75 951 366 Q 948 369 945 372 Q 939.75 373.5 934.5 375 Q 931.5 376.875 928.5 378.75 Q 926.25 382.875 924 387 Q 921.75 390.375 919.5 393.75 Q 917.25 397.5 915 401.25 Q 915 406.5 915 411.75 Q 916.5 416.625 918 421.5 Q 918 425.25 918 429 Q 918 429 918 429 Q 918 430.5 918 432 Q 918.375 433.5 918.75 435 Q 921 438 923.25 441 Q 928.5 441.75 933.75 442.5 Q 936.375 443.25 939 444 Q 939 444 939 444 Q 939 445.5 939 447 Q 939 450.375 939 453.75 Q 936.75 457.5 934.5 461.25 Q 932.25 464.625 930 468 Q 927 470.625 924 473.25 Q 919.875 475.5 915.75 477.75 Q 911.625 478.875 907.5 480 Q 902.625 481.5 897.75 483 Q 892.875 482.625 888 482.25 Q 883.125 481.125 878.25 480 Q 874.875 477.75 871.5 475.5 Q 868.5 472.5 865.5 469.5 Q 863.25 466.125 861 462.75 Q 859.875 457.875 858.75 453 Q 858.375 451.5 858 450 Q 858 450 858 450 Q 856.5 448.5 855 447 Q 861 446.625 867 446.25 Q 868.5 442.875 870 439.5 Q 870 435.75 870 432 Q 870 432 870 432 Q 870 430.5 870 429 Q 870 429 870 429 Q 870 429 870 429 Q 871.5 429 873 429 Q 876 427.5 879 426 Q 882.375 423.75 885.75 421.5 Q 889.125 418.125 892.5 414.75 Q 889.5 411.375 886.5 408 Q 878.25 408 870 408 Q 870 409.5 870 411 Z" style="stroke: rgb(0, 0, 0); stroke-width: 1px; fill: rgb(251, 213, 178);"></path><g class="label" transform="translate(845.739192151824,333.582942151824)"><svg width="66.615365696352" height="66.615365696352" overflow="visible" viewBox="-50 -50 100 100" preserveAspectRatio="xMidYMid meet"><text font-family="Tahoma" font-size="40" dominant-baseline="middle" text-anchor="middle" fill="#000">4</text></svg></g><path data-facetId="5" d="M 276 384 Q 270.75 381.75 265.5 379.5 Q 261.75 377.625 258 375.75 Q 254.25 372.75 250.5 369.75 Q 253.125 367.125 255.75 364.5 Q 260.625 365.25 265.5 366 Q 269.25 366 273 366 Q 273 366 273 366 Q 274.5 366 276 366 Q 276 369.75 276 373.5 Q 276.75 375 277.5 376.5 Q 278.25 378.75 279 381 Q 277.5 382.5 276 384 Z" style="stroke: rgb(0, 0, 0); stroke-width: 1px; fill: rgb(234, 188, 158);"></path><g class="label" transform="translate(252.61213369674957,360.82893586477127)"><svg width="27.330836490873025" height="27.330836490873025" overflow="visible" viewBox="-50 -50 100 100" preserveAspectRatio="xMidYMid meet"><text font-family="Tahoma" font-size="40" dominant-baseline="middle" text-anchor="middle" fill="#000">6</text></svg></g><path data-facetId="6" d="M 546 384 Q 550.5 382.125 555 380.25 Q 558.75 382.875 562.5 385.5 Q 566.25 387.375 570 389.25 Q 574.125 391.5 578.25 393.75 Q 581.25 397.125 584.25 400.5 Q 583.5 405.75 582.75 411 Q 580.5 415.125 578.25 419.25 Q 576.375 423 574.5 426.75 Q 572.625 430.875 570.75 435 Q 570.375 438 570 441 Q 570 441 570 441 Q 568.5 441 567 441 Q 565.5 442.5 564 444 Q 564 444 564 444 Q 562.5 444 561 444 Q 561 444 561 444 Q 561 444 561 444 Q 561.375 442.5 561.75 441 Q 563.625 436.875 565.5 432.75 Q 567 428.25 568.5 423.75 Q 570.375 420 572.25 416.25 Q 574.5 412.125 576.75 408 Q 576 403.875 575.25 399.75 Q 571.5 397.125 567.75 394.5 Q 564 392.625 560.25 390.75 Q 556.125 388.5 552 386.25 Q 550.5 385.125 549 384 Q 547.5 384 546 384 Z" style="stroke: rgb(0, 0, 0); stroke-width: 1px; fill: rgb(0, 36, 80);"></path><g class="label" transform="translate(568.7142147181914,393.7767147181915)"><svg width="21.884070563617" height="21.884070563617" overflow="visible" viewBox="-50 -50 100 100" preserveAspectRatio="xMidYMid meet"><text font-family="Tahoma" font-size="40" dominant-baseline="middle" text-anchor="middle" fill="#000">1</text></svg></g><path data-facetId="7" d="M 516 426 Q 519.75 422.625 523.5 419.25 Q 525.375 415.125 527.25 411 Q 529.5 406.875 531.75 402.75 Q 533.25 398.625 534.75 394.5 Q 537 390.375 539.25 386.25 Q 542.625 385.125 546 384 Q 546 384 546 384 Q 547.5 384 549 384 Q 550.5 385.125 552 386.25 Q 556.125 388.5 560.25 390.75 Q 564 392.625 567.75 394.5 Q 571.5 397.125 575.25 399.75 Q 576 403.875 576.75 408 Q 574.5 412.125 572.25 416.25 Q 570.375 420 568.5 423.75 Q 567 428.25 565.5 432.75 Q 563.625 436.875 561.75 441 Q 561.375 442.5 561 444 Q 561 444 561 444 Q 561 445.5 561 447 Q 559.875 448.875 558.75 450.75 Q 556.125 454.5 553.5 458.25 Q 551.625 462 549.75 465.75 Q 547.5 469.875 545.25 474 Q 542.25 475.5 539.25 477 Q 535.125 475.125 531 473.25 Q 527.25 471.375 523.5 469.5 Q 522.75 465 522 460.5 Q 520.875 455.25 519.75 450 Q 519.375 444.75 519 439.5 Q 519 434.25 519 429 Q 517.5 427.5 516 426 Z" style="stroke: rgb(0, 0, 0); stroke-width: 1px; fill: rgb(165, 208, 251);"></path><g class="label" transform="translate(517.4277700096676,411.3496450096676)"><svg width="48.285084980664806" height="48.285084980664806" overflow="visible" viewBox="-50 -50 100 100" preserveAspectRatio="xMidYMid meet"><text font-family="Tahoma" font-size="40" dominant-baseline="middle" text-anchor="middle" fill="#000">8</text></svg></g><path data-facetId="8" d="M 72 753 Q 73.875 749.25 75.75 745.5 Q 76.875 741 78 736.5 Q 79.125 731.25 80.25 726 Q 81 720.75 81.75 715.5 Q 82.875 711 84 706.5 Q 84.75 700.875 85.5 695.25 Q 86.25 690.375 87 685.5 Q 88.5 680.625 90 675.75 Q 90.375 670.125 90.75 664.5 Q 91.875 660 93 655.5 Q 94.125 650.25 95.25 645 Q 95.625 639.75 96 634.5 Q 97.5 629.625 99 624.75 Q 99.75 619.5 100.5 614.25 Q 101.25 609.375 102 604.5 Q 103.5 599.625 105 594.75 Q 105.375 589.125 105.75 583.5 Q 106.875 579 108 574.5 Q 109.125 569.25 110.25 564 Q 110.625 558.75 111 553.5 Q 112.5 548.625 114 543.75 Q 114.75 538.5 115.5 533.25 Q 116.25 528.375 117 523.5 Q 118.125 518.25 119.25 513 Q 120 507.75 120.75 502.5 Q 121.875 498 123 493.5 Q 124.125 488.25 125.25 483 Q 125.625 477.75 126 472.5 Q 127.5 467.625 129 462.75 Q 130.125 457.875 131.25 453 Q 133.5 448.875 135.75 444.75 Q 137.625 441 139.5 437.25 Q 142.5 433.875 145.5 430.5 Q 148.125 427.125 150.75 423.75 Q 154.125 421.125 157.5 418.5 Q 161.25 415.875 165 413.25 Q 169.125 411.375 173.25 409.5 Q 177.75 408 182.25 406.5 Q 187.875 405.75 193.5 405 Q 199.125 405 204.75 405 Q 205.875 401.25 207 397.5 Q 209.25 392.625 211.5 387.75 Q 215.25 387.375 219 387 Q 219 387 219 387 Q 220.5 387 222 387 Q 227.25 387 232.5 387 Q 238.5 387 244.5 387 Q 250.5 387 256.5 387 Q 262.5 387 268.5 387 Q 272.25 387 276 387 Q 276 387 276 387 Q 277.5 387 279 387 Q 282.375 388.125 285.75 389.25 Q 286.875 394.875 288 400.5 Q 290.25 402.75 292.5 405 Q 297.375 404.25 302.25 403.5 Q 306.75 404.25 311.25 405 Q 316.875 405.375 322.5 405.75 Q 326.625 407.625 330.75 409.5 Q 334.875 411.75 339 414 Q 342 417 345 420 Q 348 423 351 426 Q 354 429 357 432 Q 359.25 435.75 361.5 439.5 Q 364.125 443.25 366.75 447 Q 368.625 450.75 370.5 454.5 Q 372.75 458.625 375 462.75 Q 376.875 466.875 378.75 471 Q 380.625 475.125 382.5 479.25 Q 384.375 483.375 386.25 487.5 Q 387.75 492 389.25 496.5 Q 390.75 501 392.25 505.5 Q 393.75 510 395.25 514.5 Q 396.75 519 398.25 523.5 Q 399.375 528 400.5 532.5 Q 403.5 532.5 406.5 532.5 Q 409.875 529.5 413.25 526.5 Q 416.625 524.25 420 522 Q 423.375 519.375 426.75 516.75 Q 430.125 514.125 433.5 511.5 Q 437.25 508.875 441 506.25 Q 444 503.625 447 501 Q 450.375 498.375 453.75 495.75 Q 457.125 493.125 460.5 490.5 Q 464.25 487.875 468 485.25 Q 471 482.625 474 480 Q 478.875 479.25 483.75 478.5 Q 487.125 481.5 490.5 484.5 Q 492.75 485.25 495 486 Q 495 486 495 486 Q 495 487.5 495 489 Q 496.5 492 498 495 Q 501 498 504 501 Q 507.375 503.625 510.75 506.25 Q 514.5 508.875 518.25 511.5 Q 521.625 512.25 525 513 Q 525 513 525 513 Q 526.5 513 528 513 Q 527.25 516.375 526.5 519.75 Q 523.875 523.5 521.25 527.25 Q 518.625 530.625 516 534 Q 513 537 510 540 Q 507 543 504 546 Q 501 549 498 552 Q 495.75 555.375 493.5 558.75 Q 490.5 562.125 487.5 565.5 Q 484.5 568.5 481.5 571.5 Q 478.5 574.5 475.5 577.5 Q 472.5 580.5 469.5 583.5 Q 467.25 587.25 465 591 Q 462 594 459 597 Q 456 600 453 603 Q 450 606 447 609 Q 444.75 612.375 442.5 615.75 Q 439.5 619.125 436.5 622.5 Q 433.5 625.5 430.5 628.5 Q 426.75 631.125 423 633.75 Q 420 636 417 638.25 Q 413.25 641.25 409.5 644.25 Q 405 643.125 400.5 642 Q 395.625 640.125 390.75 638.25 Q 387 637.125 383.25 636 Q 382.875 638.625 382.5 641.25 Q 383.25 646.875 384 652.5 Q 385.125 657 386.25 661.5 Q 386.625 667.125 387 672.75 Q 388.5 677.625 390 682.5 Q 390.375 687.75 390.75 693 Q 391.875 698.25 393 703.5 Q 393.375 708.75 393.75 714 Q 394.875 719.25 396 724.5 Q 396 730.125 396 735.75 Q 397.5 740.625 399 745.5 Q 399 749.25 399 753 Q 399 753 399 753 Q 397.5 753 396 753 Q 394.5 753 393 753 Q 391.5 753 390 753 Q 388.5 753 387 753 Q 385.5 753 384 753 Q 382.5 753 381 753 Q 379.5 753 378 753 Q 376.5 753 375 753 Q 373.5 753 372 753 Q 370.5 753 369 753 Q 367.5 753 366 753 Q 364.5 753 363 753 Q 361.5 753 360 753 Q 358.5 753 357 753 Q 355.5 753 354 753 Q 352.5 753 351 753 Q 349.5 753 348 753 Q 346.5 753 345 753 Q 343.5 753 342 753 Q 340.5 753 339 753 Q 337.5 753 336 753 Q 334.5 753 333 753 Q 331.5 753 330 753 Q 328.5 753 327 753 Q 325.5 753 324 753 Q 322.5 753 321 753 Q 319.5 753 318 753 Q 316.5 753 315 753 Q 313.5 753 312 753 Q 310.5 753 309 753 Q 307.5 753 306 753 Q 304.5 753 303 753 Q 301.5 753 300 753 Q 298.5 753 297 753 Q 295.5 753 294 753 Q 292.5 753 291 753 Q 289.5 753 288 753 Q 286.5 753 285 753 Q 283.5 753 282 753 Q 280.5 753 279 753 Q 277.5 753 276 753 Q 274.5 753 273 753 Q 271.5 753 270 753 Q 268.5 753 267 753 Q 265.5 753 264 753 Q 262.5 753 261 753 Q 259.5 753 258 753 Q 256.5 753 255 753 Q 253.5 753 252 753 Q 250.5 753 249 753 Q 247.5 753 246 753 Q 244.5 753 243 753 Q 241.5 753 240 753 Q 238.5 753 237 753 Q 235.5 753 234 753 Q 232.5 753 231 753 Q 229.5 753 228 753 Q 226.5 753 225 753 Q 223.5 753 222 753 Q 220.5 753 219 753 Q 217.5 753 216 753 Q 214.5 753 213 753 Q 211.5 753 210 753 Q 208.5 753 207 753 Q 205.5 753 204 753 Q 202.5 753 201 753 Q 199.5 753 198 753 Q 196.5 753 195 753 Q 193.5 753 192 753 Q 190.5 753 189 753 Q 187.5 753 186 753 Q 184.5 753 183 753 Q 183 753 183 753 Q 183 753 183 753 Q 182.625 749.25 182.25 745.5 Q 181.125 741 180 736.5 Q 180 730.5 180 724.5 Q 180 718.5 180 712.5 Q 178.5 707.625 177 702.75 Q 177 697.125 177 691.5 Q 173.625 688.875 170.25 686.25 Q 169.125 691.875 168 697.5 Q 167.25 702.375 166.5 707.25 Q 165.75 712.875 165 718.5 Q 163.875 723 162.75 727.5 Q 162.375 733.5 162 739.5 Q 160.875 744 159.75 748.5 Q 159.375 750.75 159 753 Q 159 753 159 753 Q 159 753 159 753 Q 157.5 753 156 753 Q 154.5 753 153 753 Q 151.5 753 150 753 Q 148.5 753 147 753 Q 145.5 753 144 753 Q 142.5 753 141 753 Q 139.5 753 138 753 Q 136.5 753 135 753 Q 133.5 753 132 753 Q 130.5 753 129 753 Q 127.5 753 126 753 Q 124.5 753 123 753 Q 121.5 753 120 753 Q 118.5 753 117 753 Q 115.5 753 114 753 Q 112.5 753 111 753 Q 109.5 753 108 753 Q 106.5 753 105 753 Q 103.5 753 102 753 Q 100.5 753 99 753 Q 97.5 753 96 753 Q 94.5 753 93 753 Q 91.5 753 90 753 Q 88.5 753 87 753 Q 85.5 753 84 753 Q 82.5 753 81 753 Q 79.5 753 78 753 Q 76.5 753 75 753 Q 75 753 75 753 Q 73.5 753 72 753 Z" style="stroke: rgb(0, 0, 0); stroke-width: 1px; fill: rgb(20, 132, 251);"></path><g class="label" transform="translate(198.3638143286397,501.8794393286397)"><svg width="120.64346509272059" height="120.64346509272059" overflow="visible" viewBox="-50 -50 100 100" preserveAspectRatio="xMidYMid meet"><text font-family="Tahoma" font-size="40" dominant-baseline="middle" text-anchor="middle" fill="#000">2</text></svg></g><path data-facetId="9" d="M 870 429 Q 870 425.25 870 421.5 Q 870 418.5 870 415.5 Q 870 413.25 870 411 Q 870 411 870 411 Q 870 409.5 870 408 Q 878.25 408 886.5 408 Q 889.5 411.375 892.5 414.75 Q 889.125 418.125 885.75 421.5 Q 882.375 423.75 879 426 Q 876 427.5 873 429 Q 871.5 429 870 429 Z" style="stroke: rgb(0, 0, 0); stroke-width: 1px; fill: rgb(234, 188, 158);"></path><g class="label" transform="translate(864.5162249527831,404.0162249527831)"><svg width="29.34255009443382" height="29.34255009443382" overflow="visible" viewBox="-50 -50 100 100" preserveAspectRatio="xMidYMid meet"><text font-family="Tahoma" font-size="40" dominant-baseline="middle" text-anchor="middle" fill="#000">6</text></svg></g><path data-facetId="10" d="M 633 468 Q 633 466.125 633 464.25 Q 631.5 459.375 630 454.5 Q 630 448.5 630 442.5 Q 630.375 436.5 630.75 430.5 Q 634.875 427.875 639 425.25 Q 644.25 424.125 649.5 423 Q 654.375 422.25 659.25 421.5 Q 664.875 421.125 670.5 420.75 Q 673.125 424.875 675.75 429 Q 676.875 434.25 678 439.5 Q 678 445.5 678 451.5 Q 678.375 456.75 678.75 462 Q 679.875 467.25 681 472.5 Q 681 478.5 681 484.5 Q 681.375 489.75 681.75 495 Q 682.875 500.25 684 505.5 Q 681.375 510 678.75 514.5 Q 675.375 515.25 672 516 Q 672 516 672 516 Q 670.5 514.5 669 513 Q 669 510.75 669 508.5 Q 667.875 503.25 666.75 498 Q 665.25 493.5 663.75 489 Q 661.125 485.25 658.5 481.5 Q 655.5 478.5 652.5 475.5 Q 648.75 472.875 645 470.25 Q 640.5 469.125 636 468 Q 634.5 468 633 468 Z" style="stroke: rgb(0, 0, 0); stroke-width: 1px; fill: rgb(0, 36, 80);"></path><g class="label" transform="translate(630.4779762208439,426.1029762208439)"><svg width="49.66904755831217" height="49.66904755831217" overflow="visible" viewBox="-50 -50 100 100" preserveAspectRatio="xMidYMid meet"><text font-family="Tahoma" font-size="40" dominant-baseline="middle" text-anchor="middle" fill="#000">1</text></svg></g><path data-facetId="11" d="M 495 486 Q 498 483 501 480 Q 502.125 477 503.25 474 Q 501.75 469.5 500.25 465 Q 499.125 459.75 498 454.5 Q 499.5 449.625 501 444.75 Q 501.75 439.5 502.5 434.25 Q 505.5 430.5 508.5 426.75 Q 512.25 426.375 516 426 Q 516 426 516 426 Q 517.5 427.5 519 429 Q 519 434.25 519 439.5 Q 519.375 444.75 519.75 450 Q 520.875 455.25 522 460.5 Q 522.75 465 523.5 469.5 Q 527.25 471.375 531 473.25 Q 535.125 475.125 539.25 477 Q 542.25 475.5 545.25 474 Q 547.5 469.875 549.75 465.75 Q 551.625 462 553.5 458.25 Q 556.125 454.5 558.75 450.75 Q 559.875 448.875 561 447 Q 561 447 561 447 Q 561 445.5 561 444 Q 562.5 444 564 444 Q 564 444 564 444 Q 565.5 442.5 567 441 Q 567 441 567 441 Q 568.5 441 570 441 Q 571.5 446.25 573 451.5 Q 572.25 457.125 571.5 462.75 Q 570 467.25 568.5 471.75 Q 566.25 475.875 564 480 Q 561 483 558 486 Q 554.625 488.625 551.25 491.25 Q 547.875 493.875 544.5 496.5 Q 541.5 499.5 538.5 502.5 Q 536.625 506.625 534.75 510.75 Q 531.375 511.875 528 513 Q 528 513 528 513 Q 526.5 513 525 513 Q 521.625 512.25 518.25 511.5 Q 514.5 508.875 510.75 506.25 Q 507.375 503.625 504 501 Q 501 498 498 495 Q 496.5 492 495 489 Q 495 487.5 495 486 Z" style="stroke: rgb(0, 0, 0); stroke-width: 1px; fill: rgb(251, 213, 178);"></path><g class="label" transform="translate(498.59308710784387,468.59308710784387)"><svg width="46.01695078431226" height="46.01695078431226" overflow="visible" viewBox="-50 -50 100 100" preserveAspectRatio="xMidYMid meet"><text font-family="Tahoma" font-size="40" dominant-baseline="middle" text-anchor="middle" fill="#000">4</text></svg></g><path data-facetId="12" d="M 858 450 Q 858.375 451.5 858.75 453 Q 859.875 457.875 861 462.75 Q 863.25 466.125 865.5 469.5 Q 868.5 472.5 871.5 475.5 Q 874.875 477.75 878.25 480 Q 883.125 481.125 888 482.25 Q 892.875 482.625 897.75 483 Q 902.625 481.5 907.5 480 Q 911.625 478.875 915.75 477.75 Q 919.875 475.5 924 473.25 Q 927 470.625 930 468 Q 932.25 464.625 934.5 461.25 Q 936.75 457.5 939 453.75 Q 939 450.375 939 447 Q 939 447 939 447 Q 939 445.5 939 444 Q 942.75 444 946.5 444 Q 951.75 445.125 957 446.25 Q 962.25 446.625 967.5 447 Q 972.75 448.125 978 449.25 Q 982.875 450.375 987.75 451.5 Q 992.25 453 996.75 454.5 Q 1000.875 456.75 1005 459 Q 1008.375 461.25 1011.75 463.5 Q 1015.125 466.5 1018.5 469.5 Q 1021.125 473.25 1023.75 477 Q 1025.625 480.75 1027.5 484.5 Q 1030.125 488.25 1032.75 492 Q 1034.625 495.75 1036.5 499.5 Q 1039.125 503.25 1041.75 507 Q 1043.625 510.75 1045.5 514.5 Q 1048.125 518.25 1050.75 522 Q 1053 525.375 1055.25 528.75 Q 1057.5 532.875 1059.75 537 Q 1062 540.375 1064.25 543.75 Q 1066.875 547.5 1069.5 551.25 Q 1067.625 555.375 1065.75 559.5 Q 1062 561.375 1058.25 563.25 Q 1057.125 565.125 1056 567 Q 1056 567 1056 567 Q 1054.5 567 1053 567 Q 1049.25 567.375 1045.5 567.75 Q 1041.375 569.625 1037.25 571.5 Q 1033.125 573.375 1029 575.25 Q 1024.875 577.5 1020.75 579.75 Q 1017 581.625 1013.25 583.5 Q 1009.125 587.25 1005 591 Q 1005 591 1005 591 Q 1005 591 1005 591 Q 1001.625 591.75 998.25 592.5 Q 994.125 594.75 990 597 Q 988.5 602.25 987 607.5 Q 987 613.5 987 619.5 Q 986.25 624.375 985.5 629.25 Q 984 633.375 982.5 637.5 Q 979.875 641.25 977.25 645 Q 974.625 648 972 651 Q 970.5 652.5 969 654 Q 969 654 969 654 Q 969 654 969 654 Q 965.25 654 961.5 654 Q 955.5 654 949.5 654 Q 943.5 654 937.5 654 Q 931.5 654 925.5 654 Q 919.5 654 913.5 654 Q 907.5 654 901.5 654 Q 895.5 654 889.5 654 Q 883.5 654.375 877.5 654.75 Q 873 655.875 868.5 657 Q 862.5 657 856.5 657 Q 849.75 657 843 657 Q 843 657 843 657 Q 841.5 658.5 840 660 Q 838.5 657.375 837 654.75 Q 833.625 651.375 830.25 648 Q 829.125 643.125 828 638.25 Q 826.5 633.375 825 628.5 Q 825 622.875 825 617.25 Q 823.5 616.125 822 615 Q 822 615 822 615 Q 822 613.5 822 612 Q 822.75 609.375 823.5 606.75 Q 824.25 601.125 825 595.5 Q 822.75 590.625 820.5 585.75 Q 815.25 585 810 584.25 Q 804.75 583.125 799.5 582 Q 795 580.875 790.5 579.75 Q 785.625 578.625 780.75 577.5 Q 777.375 576.75 774 576 Q 774 576 774 576 Q 772.5 577.5 771 579 Q 771.375 572.25 771.75 565.5 Q 773.25 561 774.75 556.5 Q 775.875 552 777 547.5 Q 778.5 542.625 780 537.75 Q 781.5 533.25 783 528.75 Q 784.125 523.875 785.25 519 Q 786.375 514.125 787.5 509.25 Q 788.25 504.375 789 499.5 Q 790.5 494.625 792 489.75 Q 792.75 484.5 793.5 479.25 Q 795.375 475.125 797.25 471 Q 799.875 467.25 802.5 463.5 Q 805.875 460.5 809.25 457.5 Q 813.375 455.625 817.5 453.75 Q 823.5 453.375 829.5 453 Q 834 451.875 838.5 450.75 Q 844.125 450.375 849.75 450 Q 852.375 448.5 855 447 Q 856.5 448.5 858 450 Z" style="stroke: rgb(0, 0, 0); stroke-width: 1px; fill: rgb(251, 184, 8);"></path><g class="label" transform="translate(861.8075087871268,522.057508787127)"><svg width="93.25998242574633" height="93.25998242574616" overflow="visible" viewBox="-50 -50 100 100" preserveAspectRatio="xMidYMid meet"><text font-family="Tahoma" font-size="20" dominant-baseline="middle" text-anchor="middle" fill="#000">12</text></svg></g><path data-facetId="13" d="M 822 615 Q 819.375 619.5 816.75 624 Q 815.25 628.5 813.75 633 Q 811.875 637.125 810 641.25 Q 808.125 645.75 806.25 650.25 Q 804.375 654 802.5 657.75 Q 800.25 661.875 798 666 Q 793.875 668.25 789.75 670.5 Q 784.125 671.25 778.5 672 Q 772.875 671.25 767.25 670.5 Q 763.125 668.25 759 666 Q 756 663 753 660 Q 750 657 747 654 Q 744 651 741 648 Q 738 645 735 642 Q 732 639 729 636 Q 726 633 723 630 Q 720 627 717 624 Q 714 621 711 618 Q 708 615 705 612 Q 702 609 699 606 Q 696 603 693 600 Q 690 597 687 594 Q 684 591 681 588 Q 678 585 675 582 Q 672 579 669 576 Q 666 573 663 570 Q 660 567 657 564 Q 654 561 651 558 Q 648 555 645 552 Q 642 549 639 546 Q 636 543 633 540 Q 630.375 536.625 627.75 533.25 Q 625.125 529.5 622.5 525.75 Q 620.625 521.625 618.75 517.5 Q 617.625 512.625 616.5 507.75 Q 616.125 502.125 615.75 496.5 Q 617.25 492 618.75 487.5 Q 620.625 483.375 622.5 479.25 Q 625.5 475.875 628.5 472.5 Q 630.75 470.25 633 468 Q 633 468 633 468 Q 634.5 468 636 468 Q 640.5 469.125 645 470.25 Q 648.75 472.875 652.5 475.5 Q 655.5 478.5 658.5 481.5 Q 661.125 485.25 663.75 489 Q 665.25 493.5 666.75 498 Q 667.875 503.25 669 508.5 Q 669 510.75 669 513 Q 669 513 669 513 Q 670.5 514.5 672 516 Q 672 518.25 672 520.5 Q 670.5 525 669 529.5 Q 672 531.75 675 534 Q 678.375 536.25 681.75 538.5 Q 685.5 541.125 689.25 543.75 Q 692.625 546.375 696 549 Q 699.375 551.25 702.75 553.5 Q 706.5 556.125 710.25 558.75 Q 713.625 561 717 563.25 Q 720.75 565.875 724.5 568.5 Q 728.25 570.75 732 573 Q 735.375 575.25 738.75 577.5 Q 742.5 580.125 746.25 582.75 Q 749.625 585.375 753 588 Q 756.375 590.25 759.75 592.5 Q 763.5 592.875 767.25 593.25 Q 769.125 589.5 771 585.75 Q 771 582.375 771 579 Q 771 579 771 579 Q 772.5 577.5 774 576 Q 777.375 576.75 780.75 577.5 Q 785.625 578.625 790.5 579.75 Q 795 580.875 799.5 582 Q 804.75 583.125 810 584.25 Q 815.25 585 820.5 585.75 Q 822.75 590.625 825 595.5 Q 824.25 601.125 823.5 606.75 Q 822.75 609.375 822 612 Q 822 613.5 822 615 Z" style="stroke: rgb(0, 0, 0); stroke-width: 1px; fill: rgb(251, 213, 178);"></path><g class="label" transform="translate(742.5286399286044,599.4661399286044)"><svg width="62.00522014279113" height="62.00522014279113" overflow="visible" viewBox="-50 -50 100 100" preserveAspectRatio="xMidYMid meet"><text font-family="Tahoma" font-size="40" dominant-baseline="middle" text-anchor="middle" fill="#000">4</text></svg></g><path data-facetId="14" d="M 1005 591 Q 1009.125 587.25 1013.25 583.5 Q 1017 581.625 1020.75 579.75 Q 1024.875 577.5 1029 575.25 Q 1033.125 573.375 1037.25 571.5 Q 1041.375 569.625 1045.5 567.75 Q 1049.25 567.375 1053 567 Q 1053 567 1053 567 Q 1054.5 567 1056 567 Q 1056.75 572.625 1057.5 578.25 Q 1059.375 582.375 1061.25 586.5 Q 1062.75 591 1064.25 595.5 Q 1065.75 600 1067.25 604.5 Q 1068.75 608.625 1070.25 612.75 Q 1072.125 617.25 1074 621.75 Q 1075.5 626.25 1077 630.75 Q 1078.5 635.625 1080 640.5 Q 1080 646.5 1080 652.5 Q 1079.625 658.5 1079.25 664.5 Q 1078.125 669 1077 673.5 Q 1076.25 679.125 1075.5 684.75 Q 1074.75 689.625 1074 694.5 Q 1072.875 699.75 1071.75 705 Q 1071 710.25 1070.25 715.5 Q 1069.125 720 1068 724.5 Q 1067.25 730.125 1066.5 735.75 Q 1065.75 740.625 1065 745.5 Q 1065 749.25 1065 753 Q 1065 753 1065 753 Q 1063.5 753 1062 753 Q 1060.5 753 1059 753 Q 1057.5 753 1056 753 Q 1054.5 753 1053 753 Q 1051.5 753 1050 753 Q 1048.5 753 1047 753 Q 1045.5 753 1044 753 Q 1042.5 753 1041 753 Q 1039.5 753 1038 753 Q 1036.5 753 1035 753 Q 1033.5 753 1032 753 Q 1030.5 753 1029 753 Q 1029 753 1029 753 Q 1029 753 1029 753 Q 1029 749.25 1029 745.5 Q 1029 739.5 1029 733.5 Q 1029.375 728.25 1029.75 723 Q 1030.875 717.75 1032 712.5 Q 1032 706.5 1032 700.5 Q 1032 694.5 1032 688.5 Q 1032.75 683.625 1033.5 678.75 Q 1034.25 673.125 1035 667.5 Q 1035 661.5 1035 655.5 Q 1033.125 650.625 1031.25 645.75 Q 1029.375 642 1027.5 638.25 Q 1025.625 634.125 1023.75 630 Q 1021.5 625.875 1019.25 621.75 Q 1017.75 617.625 1016.25 613.5 Q 1014.375 609.375 1012.5 605.25 Q 1010.625 601.125 1008.75 597 Q 1008.375 594 1008 591 Q 1006.5 591 1005 591 Z" style="stroke: rgb(0, 0, 0); stroke-width: 1px; fill: rgb(251, 213, 178);"></path><g class="label" transform="translate(1012.4484030218534,574.4484030218534)"><svg width="52.415693956293126" height="52.415693956293126" overflow="visible" viewBox="-50 -50 100 100" preserveAspectRatio="xMidYMid meet"><text font-family="Tahoma" font-size="40" dominant-baseline="middle" text-anchor="middle" fill="#000">4</text></svg></g><path data-facetId="15" d="M 969 654 Q 970.5 652.5 972 651 Q 974.625 648 977.25 645 Q 979.875 641.25 982.5 637.5 Q 984 633.375 985.5 629.25 Q 986.25 624.375 987 619.5 Q 987 613.5 987 607.5 Q 988.5 602.25 990 597 Q 994.125 594.75 998.25 592.5 Q 1001.625 591.75 1005 591 Q 1005 591 1005 591 Q 1006.5 591 1008 591 Q 1008.375 594 1008.75 597 Q 1010.625 601.125 1012.5 605.25 Q 1014.375 609.375 1016.25 613.5 Q 1017.75 617.625 1019.25 621.75 Q 1021.5 625.875 1023.75 630 Q 1025.625 634.125 1027.5 638.25 Q 1029.375 642 1031.25 645.75 Q 1033.125 650.625 1035 655.5 Q 1035 661.5 1035 667.5 Q 1034.25 673.125 1033.5 678.75 Q 1032.75 683.625 1032 688.5 Q 1032 694.5 1032 700.5 Q 1032 706.5 1032 712.5 Q 1030.875 717.75 1029.75 723 Q 1029.375 728.25 1029 733.5 Q 1029 739.5 1029 745.5 Q 1029 749.25 1029 753 Q 1029 753 1029 753 Q 1027.5 753 1026 753 Q 1024.5 753 1023 753 Q 1021.5 753 1020 753 Q 1018.5 753 1017 753 Q 1015.5 753 1014 753 Q 1012.5 753 1011 753 Q 1009.5 753 1008 753 Q 1006.5 753 1005 753 Q 1003.5 753 1002 753 Q 1002 753 1002 753 Q 1002 753 1002 753 Q 1002 753 1002 753 Q 1000.5 750.375 999 747.75 Q 998.25 742.5 997.5 737.25 Q 996.75 732.375 996 727.5 Q 994.5 722.625 993 717.75 Q 991.5 713.25 990 708.75 Q 988.5 704.25 987 699.75 Q 985.5 695.25 984 690.75 Q 982.125 686.25 980.25 681.75 Q 978.75 677.625 977.25 673.5 Q 975.375 669.375 973.5 665.25 Q 972.75 659.625 972 654 Q 970.5 654 969 654 Z" style="stroke: rgb(0, 0, 0); stroke-width: 1px; fill: rgb(0, 0, 0);"></path><g class="label" transform="translate(976.4329075352483,634.7141575352483)"><svg width="56.66543492950336" height="56.66543492950336" overflow="visible" viewBox="-50 -50 100 100" preserveAspectRatio="xMidYMid meet"><text font-family="Tahoma" font-size="40" dominant-baseline="middle" text-anchor="middle" fill="#000">0</text></svg></g><path data-facetId="16" d="M 843 657 Q 849.75 657 856.5 657 Q 862.5 657 868.5 657 Q 873 655.875 877.5 654.75 Q 883.5 654.375 889.5 654 Q 895.5 654 901.5 654 Q 907.5 654 913.5 654 Q 919.5 654 925.5 654 Q 931.5 654 937.5 654 Q 943.5 654 949.5 654 Q 955.5 654 961.5 654 Q 965.25 654 969 654 Q 969 654 969 654 Q 970.5 654 972 654 Q 972.75 659.625 973.5 665.25 Q 975.375 669.375 977.25 673.5 Q 978.75 677.625 980.25 681.75 Q 982.125 686.25 984 690.75 Q 985.5 695.25 987 699.75 Q 988.5 704.25 990 708.75 Q 991.5 713.25 993 717.75 Q 994.5 722.625 996 727.5 Q 996.75 732.375 997.5 737.25 Q 998.25 742.5 999 747.75 Q 1000.5 750.375 1002 753 Q 1002 753 1002 753 Q 1000.5 753 999 753 Q 997.5 753 996 753 Q 994.5 753 993 753 Q 991.5 753 990 753 Q 988.5 753 987 753 Q 985.5 753 984 753 Q 982.5 753 981 753 Q 979.5 753 978 753 Q 976.5 753 975 753 Q 973.5 753 972 753 Q 970.5 753 969 753 Q 967.5 753 966 753 Q 964.5 753 963 753 Q 961.5 753 960 753 Q 958.5 753 957 753 Q 955.5 753 954 753 Q 952.5 753 951 753 Q 949.5 753 948 753 Q 946.5 753 945 753 Q 943.5 753 942 753 Q 940.5 753 939 753 Q 937.5 753 936 753 Q 934.5 753 933 753 Q 931.5 753 930 753 Q 928.5 753 927 753 Q 925.5 753 924 753 Q 922.5 753 921 753 Q 919.5 753 918 753 Q 916.5 753 915 753 Q 913.5 753 912 753 Q 910.5 753 909 753 Q 907.5 753 906 753 Q 904.5 753 903 753 Q 901.5 753 900 753 Q 898.5 753 897 753 Q 895.5 753 894 753 Q 892.5 753 891 753 Q 889.5 753 888 753 Q 886.5 753 885 753 Q 883.5 753 882 753 Q 880.5 753 879 753 Q 877.5 753 876 753 Q 874.5 753 873 753 Q 871.5 753 870 753 Q 868.5 753 867 753 Q 865.5 753 864 753 Q 862.5 753 861 753 Q 859.5 753 858 753 Q 856.5 753 855 753 Q 853.5 753 852 753 Q 850.5 753 849 753 Q 847.5 753 846 753 Q 844.5 753 843 753 Q 841.5 753 840 753 Q 838.5 753 837 753 Q 835.5 753 834 753 Q 832.5 753 831 753 Q 829.5 753 828 753 Q 826.5 753 825 753 Q 823.5 753 822 753 Q 820.5 753 819 753 Q 817.5 753 816 753 Q 814.5 753 813 753 Q 811.5 753 810 753 Q 810 753 810 753 Q 808.5 753 807 753 Q 808.5 749.25 810 745.5 Q 811.5 740.625 813 735.75 Q 814.125 730.875 815.25 726 Q 816.375 721.125 817.5 716.25 Q 819 711.75 820.5 707.25 Q 822 702.75 823.5 698.25 Q 825.375 694.125 827.25 690 Q 828.75 685.5 830.25 681 Q 832.5 676.875 834.75 672.75 Q 837 669.375 839.25 666 Q 839.625 663 840 660 Q 841.5 658.5 843 657 Z" style="stroke: rgb(0, 0, 0); stroke-width: 1px; fill: rgb(0, 36, 80);"></path><g class="label" transform="translate(869.0224892916293,669.5224892916293)"><svg width="72.45502141674137" height="72.45502141674137" overflow="visible" viewBox="-50 -50 100 100" preserveAspectRatio="xMidYMid meet"><text font-family="Tahoma" font-size="40" dominant-baseline="middle" text-anchor="middle" fill="#000">1</text></svg></g><path data-facetId="17" d="M 159 753 Q 159.375 750.75 159.75 748.5 Q 160.875 744 162 739.5 Q 162.375 733.5 162.75 727.5 Q 163.875 723 165 718.5 Q 165.75 712.875 166.5 707.25 Q 167.25 702.375 168 697.5 Q 169.125 691.875 170.25 686.25 Q 173.625 688.875 177 691.5 Q 177 697.125 177 702.75 Q 178.5 707.625 180 712.5 Q 180 718.5 180 724.5 Q 180 730.5 180 736.5 Q 181.125 741 182.25 745.5 Q 182.625 749.25 183 753 Q 183 753 183 753 Q 181.5 753 180 753 Q 178.5 753 177 753 Q 175.5 753 174 753 Q 172.5 753 171 753 Q 169.5 753 168 753 Q 166.5 753 165 753 Q 163.5 753 162 753 Q 162 753 162 753 Q 160.5 753 159 753 Z" style="stroke: rgb(0, 0, 0); stroke-width: 1px; fill: rgb(0, 0, 0);"></path><g class="label" transform="translate(154.2865427318801,728.7865427318801)"><svg width="34.17691453623979" height="34.17691453623979" overflow="visible" viewBox="-50 -50 100 100" preserveAspectRatio="xMidYMid meet"><text font-family="Tahoma" font-size="40" dominant-baseline="middle" text-anchor="middle" fill="#000">0</text></svg></g></svg>